<svg width="22" height="22" viewBox="0 0 22 22" fill="none" xmlns="http://www.w3.org/2000/svg">
<path d="M9.62308 9.10984C9.62308 9.10984 9.96915 8.90879 10.4818 8.80858C11.3978 8.62958 12.1779 8.57226 12.5214 9.17382C12.9415 9.90961 13.3121 11.4691 13.2298 12.8476C13.1869 13.5674 13.0312 13.7983 13.0312 13.7983C13.0312 13.7983 12.3724 14.2076 10.997 14.0937C9.50495 13.9702 9.27954 13.449 9.27954 13.449C9.27954 13.449 9.47277 12.9633 9.62308 11.6229C9.77334 10.2825 9.62308 9.10984 9.62308 9.10984Z" fill="white"/>
<path d="M7.90556 12.2461C8.44465 12.1033 8.89513 11.9372 9.09404 11.86C9.12381 11.6578 9.14904 11.4424 9.16682 11.2148C9.17847 11.0661 9.1868 10.9246 9.19269 10.7896C8.89818 10.6894 8.61115 10.5812 7.95652 10.3555C6.29535 9.78257 5.50103 9.625 5.50103 9.625C5.50103 9.625 6.11291 9.51758 7.31513 9.75391C8.1739 9.92273 8.79291 10.1621 9.20348 10.3698C9.23661 9.68232 9.09704 8.96973 9.09704 8.96973C8.15242 7.24023 5.13605 4.8125 3.62519 4.8125C2.48737 4.8125 1.375 7.75586 1.375 11C1.375 14.2441 2.36457 17.1875 3.58832 17.1875C5.02159 17.1875 8.59259 13.75 8.59259 13.75C8.59259 13.75 8.83914 13.2095 9.01708 12.3075C8.20978 12.5308 6.27395 12.6758 6.27395 12.6758C6.27395 12.6758 7.17561 12.4395 7.90556 12.2461Z" fill="white"/>
<path d="M18.3748 4.8125C16.812 4.8125 13.9764 7.24023 13.0317 8.96973L12.999 9.02881C12.999 9.02881 13.0587 9.13739 13.0795 9.17383C13.2266 9.43147 13.3676 9.79034 13.4852 10.2068C13.8339 10.0863 14.4992 9.85604 15.0975 9.64648C15.9563 9.3457 16.6004 9.23828 16.6004 9.23828C16.6004 9.23828 14.3238 10.2584 13.6095 10.7106C13.7027 11.1471 13.7682 11.6215 13.7908 12.096C14.0238 12.1912 14.5019 12.3742 15.0761 12.5254C15.8919 12.7402 16.812 13.0195 16.812 13.0195C16.812 13.0195 14.483 12.7931 13.7993 12.4815C13.7989 12.6036 13.7951 12.7257 13.788 12.8477C13.7451 13.5661 13.59 13.7974 13.5894 13.7983C13.9168 14.2513 16.812 17.1875 18.4117 17.1875C19.6354 17.1875 20.625 14.2441 20.625 11C20.625 7.75586 19.5126 4.8125 18.3748 4.8125Z" fill="white"/>
</svg>
