<svg width="22" height="22" viewBox="0 0 22 22" fill="none" xmlns="http://www.w3.org/2000/svg">
<path d="M10.0265 2.35393C10.6012 1.91393 11.4001 1.91393 11.9749 2.35393L18.7976 7.5693C19.6666 8.23343 19.2005 9.61943 18.1088 9.62493H3.89125C2.80087 9.61943 2.33337 8.23343 3.20375 7.5693L10.0265 2.35393ZM11 7.21868C11.2735 7.21868 11.5358 7.11003 11.7292 6.91663C11.9226 6.72323 12.0312 6.46093 12.0312 6.18743C12.0312 5.91392 11.9226 5.65162 11.7292 5.45822C11.5358 5.26482 11.2735 5.15618 11 5.15618C10.7265 5.15618 10.4642 5.26482 10.2708 5.45822C10.0774 5.65162 9.96875 5.91392 9.96875 6.18743C9.96875 6.46093 10.0774 6.72323 10.2708 6.91663C10.4642 7.11003 10.7265 7.21868 11 7.21868ZM4.8125 10.9999V15.1249H6.875V10.9999H4.8125ZM8.25 10.9999V15.1249H10.3125V10.9999H8.25ZM11.6875 10.9999V15.1249H13.75V10.9999H11.6875ZM15.125 10.9999V15.1249H17.1875V10.9999H15.125ZM2.75 18.2187C2.75 17.2699 3.52 16.4999 4.46875 16.4999H17.5312C18.48 16.4999 19.25 17.2699 19.25 18.2187V18.5624C19.25 18.7448 19.1776 18.9196 19.0486 19.0486C18.9197 19.1775 18.7448 19.2499 18.5625 19.2499H3.4375C3.25516 19.2499 3.0803 19.1775 2.95136 19.0486C2.82243 18.9196 2.75 18.7448 2.75 18.5624V18.2187Z" fill="white"/>
</svg>
