<svg width="22" height="22" viewBox="0 0 22 22" fill="none" xmlns="http://www.w3.org/2000/svg">
<path d="M6.57422 3.13672V4.30977C7.08984 4.01242 7.66992 3.73828 8.25 3.73828C8.9375 3.73828 9.43594 4.16625 9.86563 4.51172C10.2953 4.85547 10.6605 5.11328 11 5.11328C11.3395 5.11328 11.7047 4.85547 12.1344 4.51172C12.5641 4.16625 13.0625 3.73828 13.75 3.73828C14.3301 3.73828 14.9102 4.01242 15.4258 4.30977V3.13672H6.57422ZM8.25 4.51172C7.91055 4.51172 7.22734 4.8125 6.69453 5.14336C6.65156 5.16914 6.61289 5.19492 6.57422 5.21641V7.86328H15.4258V5.21641C15.3871 5.19492 15.3484 5.16914 15.3055 5.14336C14.7727 4.8125 14.0895 4.51172 13.75 4.51172C13.4105 4.51172 13.0453 4.76953 12.6156 5.11328C12.1859 5.45703 11.6875 5.88672 11 5.88672C10.3125 5.88672 9.81406 5.45703 9.38437 5.11328C8.95469 4.76953 8.58945 4.51172 8.25 4.51172ZM3.82422 8.63672V9.80977C4.33984 9.51328 4.92422 9.23828 5.5 9.23828C6.1875 9.23828 6.68594 9.66797 7.11563 10.0117C7.54531 10.3555 7.91055 10.6133 8.25 10.6133C8.58945 10.6133 8.95469 10.3555 9.38437 10.0117C9.81406 9.66797 10.3125 9.23828 11 9.23828C11.6875 9.23828 12.1859 9.66797 12.6156 10.0117C13.0453 10.3555 13.4105 10.6133 13.75 10.6133C14.0895 10.6133 14.4547 10.3555 14.8844 10.0117C15.3141 9.66797 15.8125 9.23828 16.5 9.23828C17.0801 9.23828 17.6602 9.51328 18.1758 9.80977V8.63672H3.82422ZM5.5 10.0117C5.16055 10.0117 4.47734 10.3125 3.94238 10.6434C3.90156 10.6691 3.86332 10.6906 3.82422 10.7164V13.3633H5.46992L5.49141 13.3074L5.51289 13.3633H10.9871L11 13.3332L11.0129 13.3633H16.4871L16.5086 13.3074L16.5301 13.3633H18.1758V10.7164C18.1371 10.6949 18.0984 10.6691 18.0555 10.6434C17.5227 10.3125 16.8395 10.0117 16.5 10.0117C16.1605 10.0117 15.7953 10.2695 15.3656 10.6133C14.9359 10.957 14.4375 11.3867 13.75 11.3867C13.0625 11.3867 12.5641 10.957 12.1344 10.6133C11.7047 10.2695 11.3395 10.0117 11 10.0117C10.6605 10.0117 10.2953 10.2695 9.86563 10.6133C9.43594 10.957 8.9375 11.3867 8.25 11.3867C7.5625 11.3867 7.06406 10.957 6.63437 10.6133C6.20469 10.2695 5.83945 10.0117 5.5 10.0117ZM1.76172 14.1367V14.4246C1.76258 14.4461 1.80254 15.2152 1.98172 16.0016C2.07281 16.4012 2.20172 16.7965 2.35727 17.0715C2.51281 17.3508 2.66664 17.4711 2.80672 17.4926C3.00437 17.5227 3.24371 17.4195 3.52473 17.1488C3.80574 16.8781 4.09148 16.4699 4.33555 16.0445C4.8168 15.198 5.13477 14.3086 5.13477 14.3086L5.19492 14.1367H1.76172ZM5.80078 14.1367L5.86094 14.3C5.86094 14.3 6.17461 15.1379 6.66016 15.9586C6.90078 16.3711 7.18437 16.7793 7.47227 17.0629C7.76016 17.3465 8.03516 17.4883 8.25 17.4883C8.46484 17.4883 8.73984 17.3465 9.02773 17.0629C9.31563 16.7793 9.59922 16.3711 9.83984 15.9586C10.3254 15.1379 10.6391 14.3 10.6391 14.3L10.6992 14.1367H5.80078ZM11.3008 14.1367L11.3609 14.3C11.3609 14.3 11.6746 15.1379 12.1602 15.9586C12.4008 16.3711 12.6844 16.7793 12.9723 17.0629C13.2602 17.3465 13.5352 17.4883 13.75 17.4883C13.9648 17.4883 14.2398 17.3465 14.5277 17.0629C14.8156 16.7793 15.0992 16.3711 15.3398 15.9586C15.8254 15.1379 16.1391 14.3 16.1391 14.3L16.1992 14.1367H11.3008ZM16.8051 14.1367L16.8652 14.3086C16.8652 14.3086 17.1832 15.198 17.6645 16.0445C17.9094 16.4699 18.193 16.8781 18.4766 17.1488C18.7559 17.4195 18.9965 17.5227 19.1941 17.4926C19.3316 17.4711 19.4863 17.3508 19.641 17.0715C19.8 16.7965 19.9289 16.4012 20.0191 16.0016C20.1996 15.2066 20.2383 14.4203 20.2383 14.4203V14.1367H16.8051ZM11 15.4043C10.8668 15.6922 10.7078 16.0145 10.5059 16.3539C10.2437 16.8008 9.93437 17.252 9.56914 17.6129C9.20391 17.9738 8.76562 18.2617 8.25 18.2617C7.73438 18.2617 7.29609 17.9738 6.93086 17.6129C6.56563 17.252 6.25625 16.8008 5.99414 16.3539C5.79648 16.023 5.6418 15.7094 5.50859 15.4258C5.37109 15.7309 5.20781 16.0746 5.00586 16.427C4.74375 16.891 4.43008 17.3508 4.05969 17.7074C3.6893 18.0641 3.2218 18.3348 2.69328 18.2574C2.27648 18.1973 1.9757 17.9137 1.76172 17.5785V20.9258H20.2383V17.5785C20.0277 17.9137 19.727 18.1973 19.3059 18.2574C18.7773 18.3348 18.309 18.0641 17.9395 17.7074C17.5699 17.3508 17.2563 16.891 16.9941 16.427C16.7922 16.0746 16.6289 15.7309 16.4914 15.4258C16.3582 15.7094 16.2035 16.023 16.0059 16.3539C15.7437 16.8008 15.4344 17.252 15.0691 17.6129C14.7039 17.9738 14.2656 18.2617 13.75 18.2617C13.2344 18.2617 12.7961 17.9738 12.4309 17.6129C12.0656 17.252 11.7563 16.8008 11.4941 16.3539C11.2922 16.0145 11.1332 15.6922 11 15.4043Z" fill="white"/>
</svg>
