<svg width="53" height="50" viewBox="0 0 53 50" fill="none" xmlns="http://www.w3.org/2000/svg">
<path d="M47.6628 43.7643C47.6628 44.4916 47.0951 45.0842 46.3975 45.0842H6.60253C5.90495 45.0842 5.33721 44.4916 5.33721 43.7643V20.355C5.33721 19.6277 5.90495 19.0351 6.60253 19.0351H46.3975C47.0951 19.0351 47.6628 19.6277 47.6628 20.355V43.7643ZM46.3975 5.83389H44.842V9.99187C44.842 12.1815 43.0547 13.9667 40.8602 13.9667C38.6656 13.9667 36.8809 12.1815 36.8809 9.99187V5.83389H16.1191V9.99187C16.1191 12.1815 14.3344 13.9667 12.1399 13.9667C9.94529 13.9667 8.15809 12.1815 8.15809 9.99187V5.83389H6.60253C3.23176 5.83389 0.5 8.58806 0.5 11.9856V43.8482C0.5 47.2458 3.23176 50 6.60253 50H46.3975C49.7683 50 52.5 47.2458 52.5 43.8482V11.9856C52.5 8.58806 49.7683 5.83389 46.3975 5.83389ZM32.0132 24.4214C31.532 24.2053 31.0381 24.0959 30.5467 24.0959C28.2249 24.0959 26.5725 26.4966 26.4962 26.5983C26.4274 26.4966 24.7701 24.0959 22.4533 24.0959C21.9594 24.0959 21.4681 24.2053 20.9869 24.4214C19.5434 25.0699 18.5021 26.2474 18.054 27.7377C17.4964 29.5967 17.9089 31.7583 19.2175 33.8258C21.2949 37.1039 24.6937 39.5199 26.0608 40.4074C26.1932 40.4939 26.346 40.5371 26.5013 40.5371C26.654 40.5371 26.8068 40.4939 26.9392 40.4074C28.3038 39.5224 31.7 37.1115 33.7826 33.8258C35.0912 31.7583 35.5036 29.5967 34.946 27.7377C34.4954 26.2474 33.4567 25.0699 32.0132 24.4214ZM12.1399 11.5508C13.0004 11.5508 13.7005 10.8514 13.7005 9.99187V1.55892C13.7005 0.699348 13.0004 0 12.1399 0C11.2768 0 10.5767 0.699348 10.5767 1.55892V9.99187C10.5767 10.8514 11.2768 11.5508 12.1399 11.5508ZM40.8602 11.5508C41.7232 11.5508 42.4234 10.8514 42.4234 9.99187V1.55892C42.4234 0.699348 41.7232 0 40.8602 0C39.9997 0 39.2995 0.699348 39.2995 1.55892V9.99187C39.2995 10.8514 39.9997 11.5508 40.8602 11.5508Z" fill="#1F3F3E"/>
</svg>
