<svg width="61" height="60" viewBox="0 0 61 60" fill="none" xmlns="http://www.w3.org/2000/svg">
<path d="M38.7202 1.21265L40.2118 5.80233C40.6744 7.19834 41.4572 8.46679 42.4977 9.50631C43.5382 10.5458 44.8074 11.3276 46.204 11.7891L50.799 13.2804L50.889 13.3061C51.243 13.4307 51.5497 13.6621 51.7666 13.9684C51.9835 14.2747 52.1 14.6407 52.1 15.016C52.1 15.3913 51.9835 15.7573 51.7666 16.0636C51.5497 16.3698 51.243 16.6012 50.889 16.7259L46.2983 18.2172C44.9009 18.6781 43.6308 19.4596 42.5896 20.4991C41.5483 21.5387 40.7648 22.8074 40.3018 24.2039L38.8102 28.7893C38.6856 29.1433 38.4541 29.4499 38.1478 29.6668C37.8414 29.8837 37.4753 30.0001 37.1 30.0001C36.7246 30.0001 36.3585 29.8837 36.0522 29.6668C35.7458 29.4499 35.5144 29.1433 35.3897 28.7893L33.8981 24.2039C33.4385 22.8027 32.6566 21.5288 31.6151 20.4846C30.5737 19.4404 29.3018 18.655 27.9016 18.1915L23.3067 16.7001C22.9526 16.5755 22.646 16.3441 22.429 16.0379C22.2121 15.7316 22.0956 15.3656 22.0956 14.9903C22.0956 14.615 22.2121 14.2489 22.429 13.9427C22.646 13.6364 22.9526 13.405 23.3067 13.2804L27.9016 11.7891C29.2816 11.3157 30.5328 10.5286 31.557 9.48978C32.5812 8.45095 33.3503 7.1887 33.8038 5.80233L35.2954 1.21694C35.4192 0.861458 35.6505 0.553301 35.9574 0.335232C36.2642 0.117164 36.6313 0 37.0078 0C37.3843 0 37.7514 0.117164 38.0583 0.335232C38.3651 0.553301 38.5965 0.857172 38.7202 1.21265ZM59.7444 35.2046L56.4654 34.1418C55.4676 33.8099 54.5607 33.2503 53.8167 32.5072C53.0728 31.7641 52.5121 30.858 52.1791 29.8607L51.1161 26.5866C51.0274 26.3335 50.8622 26.1142 50.6433 25.959C50.4245 25.8038 50.1628 25.7205 49.8945 25.7205C49.6263 25.7205 49.3646 25.8038 49.1458 25.959C48.9269 26.1142 48.7617 26.3335 48.6729 26.5866L47.6014 29.8607C47.2758 30.8502 46.7262 31.7513 45.9954 32.4939C45.2646 33.2364 44.3723 33.8003 43.388 34.1418L40.1089 35.2046C39.8577 35.2952 39.6405 35.4612 39.487 35.6797C39.3335 35.8983 39.2512 36.1589 39.2512 36.4259C39.2512 36.693 39.3335 36.9535 39.487 37.1721C39.6405 37.3907 39.8577 37.5566 40.1089 37.6473L43.388 38.7143C44.3872 39.0475 45.2949 39.6091 46.039 40.3545C46.7831 41.0999 47.343 42.0086 47.6742 43.0083L48.7372 46.2824C48.826 46.5355 48.9912 46.7548 49.21 46.91C49.4289 47.0651 49.6905 47.1485 49.9588 47.1485C50.2271 47.1485 50.4888 47.0651 50.7076 46.91C50.9265 46.7548 51.0917 46.5355 51.1804 46.2824L52.2477 43.0083C52.5802 42.0115 53.1402 41.1056 53.8834 40.3626C54.6267 39.6195 55.5326 39.0596 56.5297 38.7272L59.8087 37.6644C60.06 37.5737 60.2771 37.4078 60.4306 37.1892C60.5841 36.9707 60.6665 36.7101 60.6665 36.4431C60.6665 36.176 60.5841 35.9154 60.4306 35.6969C60.2771 35.4783 60.06 35.3124 59.8087 35.2217L59.7444 35.2046ZM49.9674 51.4292C48.8269 51.4278 47.7131 51.0845 46.7698 50.4435C45.8269 49.7579 45.141 48.8536 44.7124 47.7823L43.598 44.3454C43.4849 43.9836 43.2778 43.6582 42.9979 43.4026C42.7314 43.1359 42.4094 42.9311 42.0549 42.8026L38.8488 41.7484C38.0712 44.7809 36.2141 47.4257 33.6255 49.187C31.0368 50.9482 27.8946 51.705 24.7877 51.3154C21.6809 50.9259 18.8229 49.4166 16.7495 47.0708C14.6761 44.7249 13.5298 41.7034 13.5254 38.5729C13.5242 36.5741 13.9892 34.6026 14.8834 32.815C15.7776 31.0273 17.0764 29.4727 18.6766 28.2746C20.2769 27.0765 22.1345 26.268 24.1019 25.9133C26.0693 25.5585 28.0924 25.6673 30.0104 26.2309L29.7833 25.5452C29.3975 24.5596 29.0117 24.0025 28.5402 23.5311C27.9647 22.9753 27.2761 22.55 26.5214 22.284L21.9736 20.7842C20.6878 20.3556 19.6591 19.5371 18.9304 18.5043C18.4079 17.762 18.0569 16.9129 17.9027 16.0183C17.7485 15.1238 17.795 14.2062 18.0388 13.3318C16.5903 13.9211 15.4063 15.0181 14.7084 16.4173L12.2009 21.4312H9.23908C6.96549 21.4312 4.78502 22.3342 3.17735 23.9416C1.56968 25.5489 0.666504 27.729 0.666504 30.0021V51.4292C0.666504 53.7023 1.56968 55.8823 3.17735 57.4897C4.78502 59.097 6.96549 60 9.23908 60H43.5294C45.803 60 47.9835 59.097 49.5911 57.4897C51.1988 55.8823 52.102 53.7023 52.102 51.4292V51.0906C51.4147 51.3231 50.6929 51.4375 49.9674 51.4292ZM34.9568 38.5729C34.9568 40.846 34.0536 43.0261 32.446 44.6334C30.8383 46.2407 28.6578 47.1437 26.3842 47.1437C24.1107 47.1437 21.9302 46.2407 20.3225 44.6334C18.7148 43.0261 17.8117 40.846 17.8117 38.5729C17.8117 36.2998 18.7148 34.1198 20.3225 32.5124C21.9302 30.9051 24.1107 30.0021 26.3842 30.0021C28.6578 30.0021 30.8383 30.9051 32.446 32.5124C34.0536 34.1198 34.9568 36.2998 34.9568 38.5729Z" fill="#1F3F3E" fill-opacity="0.2"/>
</svg>
