<svg width="22" height="22" viewBox="0 0 22 22" fill="none" xmlns="http://www.w3.org/2000/svg">
<path d="M9.16659 20.1666V16.4999C9.16659 16.0137 9.35974 15.5474 9.70356 15.2036C10.0474 14.8597 10.5137 14.6666 10.9999 14.6666C11.4861 14.6666 11.9525 14.8597 12.2963 15.2036C12.6401 15.5474 12.8333 16.0137 12.8333 16.4999V20.1666H16.4999V10.9999C16.4999 10.8417 16.4589 10.6863 16.381 10.5486C16.3031 10.411 16.1909 10.2958 16.0553 10.2143L11.9166 7.73109V5.49992H13.7499V3.66659H11.9166V1.83325H10.0833V3.66659H8.24992V5.49992H10.0833V7.73109L5.9445 10.2143C5.80892 10.2958 5.69672 10.411 5.61881 10.5486C5.54091 10.6863 5.49995 10.8417 5.49992 10.9999V20.1666H9.16659ZM2.74992 20.1666H4.58325V12.7251L2.34017 13.8471C2.18779 13.923 2.05962 14.0399 1.97007 14.1847C1.88051 14.3295 1.83313 14.4964 1.83325 14.6666V19.2499C1.83325 19.493 1.92983 19.7262 2.10174 19.8981C2.27365 20.07 2.5068 20.1666 2.74992 20.1666ZM19.6597 13.8462L17.4166 12.7251V20.1666H19.2499C19.493 20.1666 19.7262 20.07 19.8981 19.8981C20.07 19.7262 20.1666 19.493 20.1666 19.2499V14.6666C20.1666 14.3192 19.9704 14.002 19.6597 13.8462Z" fill="white"/>
</svg>
