<svg width="35" height="25" viewBox="0 0 35 25" fill="none" xmlns="http://www.w3.org/2000/svg">
<path d="M34.5727 7.2565L32.3598 5.72994C32.2763 5.67271 32.2288 5.57685 32.2324 5.47671C32.2368 5.37513 32.2914 5.28357 32.379 5.23206L32.9496 4.90156C33.2308 4.73703 33.3268 4.3765 33.1632 4.09608L32.7198 3.33066C32.6414 3.19617 32.5124 3.09746 32.3615 3.0574C32.3118 3.0431 32.261 3.03737 32.2102 3.03737C32.1071 3.03737 32.0048 3.06454 31.9143 3.11748L31.3412 3.44941C31.2957 3.47659 31.2445 3.48946 31.1927 3.48946C31.1457 3.48946 31.0986 3.47802 31.0564 3.45656C30.9662 3.40935 30.9075 3.32065 30.8992 3.21907L30.6757 0.539375C30.6591 0.339079 30.5403 0.160233 30.3609 0.0658073C30.2757 0.0214558 30.1821 0 30.0886 0C29.9863 0 29.8842 0.025753 29.793 0.0786896L28.5441 0.804054C28.347 0.91851 28.2338 1.13598 28.2527 1.36203L28.5474 4.87724C28.5569 4.99026 28.4999 5.099 28.4023 5.15623L27.3259 5.78288C27.2812 5.81006 27.2294 5.82294 27.1776 5.82294C27.1303 5.82294 27.0834 5.81149 27.0413 5.79004C26.9515 5.74282 26.8924 5.65411 26.8841 5.55253L26.6612 2.87426C26.6443 2.67397 26.5256 2.49513 26.3468 2.40071C26.2608 2.35636 26.1673 2.3349 26.0736 2.3349C25.9715 2.3349 25.8697 2.36065 25.7781 2.41359L24.529 3.13894C24.3319 3.2534 24.2184 3.47087 24.2373 3.69835L24.5325 7.21214C24.5421 7.32516 24.485 7.4339 24.3869 7.49113L17.6222 11.4184C17.6215 11.4184 17.6212 11.4184 17.6205 11.4184C17.5979 11.4341 17.577 11.4499 17.5554 11.4656C17.5418 11.4771 17.5289 11.4871 17.5159 11.4985C17.2888 11.6874 17.141 11.9706 17.141 12.2897C17.141 12.8605 17.6036 13.3226 18.1744 13.3226C18.2922 13.3226 18.4034 13.2998 18.5091 13.2626C18.5121 13.2626 18.5151 13.2611 18.5178 13.2597C18.5545 13.2468 18.5897 13.2325 18.6245 13.2153C18.6352 13.2111 18.6465 13.2082 18.6571 13.2025L25.4221 9.27521C25.467 9.24945 25.5184 9.23658 25.5702 9.23658C25.6298 9.23658 25.6876 9.25375 25.7374 9.28808L28.6402 11.2868C28.7404 11.3554 28.8572 11.3912 28.9743 11.3912C29.0761 11.3912 29.1782 11.364 29.2702 11.3111L30.5194 10.5857C30.6943 10.4841 30.8047 10.301 30.8123 10.0993C30.8206 9.89756 30.7245 9.70585 30.5583 9.59139L28.3437 8.06484C28.2602 8.00618 28.2124 7.91175 28.2163 7.81017C28.2203 7.7086 28.275 7.61846 28.3626 7.56696L29.4373 6.94031C29.4822 6.91455 29.5328 6.90167 29.585 6.90167C29.6451 6.90167 29.7027 6.91885 29.7522 6.95319L32.655 8.95187C32.7553 9.02054 32.872 9.05631 32.9891 9.05631C33.091 9.05631 33.1931 9.02913 33.2846 8.97619L34.5342 8.25083C34.709 8.14925 34.8195 7.96612 34.8271 7.76439C34.8351 7.56266 34.7393 7.37095 34.5727 7.2565ZM25.5214 10.7889L19.3392 14.3785C19.2874 14.4086 19.225 14.4386 19.1645 14.4629C19.0966 14.4944 19.0335 14.5201 18.9682 14.543C18.9603 14.5459 18.9394 14.5516 18.9364 14.553C18.682 14.6389 18.4258 14.6818 18.1744 14.6818C16.8556 14.6818 15.7823 13.6088 15.7823 12.2897C15.7823 11.5872 16.0912 10.9248 16.6306 10.467C16.6595 10.4427 16.6887 10.4183 16.7191 10.394C16.7258 10.3897 16.7443 10.3754 16.751 10.3711C16.7938 10.3382 16.8373 10.3067 16.8823 10.2781C16.895 10.2695 16.9401 10.2424 16.9401 10.2424L23.122 6.65417L22.8832 3.81137C22.8212 3.06454 23.1994 2.33919 23.8472 1.96292L24.7617 1.43212C24.0884 1.14169 23.3996 0.99147 22.7117 0.99147C19.3242 0.99147 16.9152 4.49812 16.8051 4.64548C16.704 4.49669 14.2863 0.99147 10.9088 0.99147C10.1909 0.99147 9.47165 1.15171 8.77084 1.46646C6.66767 2.41359 5.14946 4.13328 4.49556 6.30937C3.68061 9.02484 4.28288 12.181 6.19197 15.1983C6.64106 15.9093 7.13579 16.5875 7.65368 17.2385L6.06854 18.1398C6.02449 18.1656 5.97371 18.1784 5.92265 18.1784C5.88518 18.1784 5.84828 18.1713 5.81324 18.1584C5.72957 18.1241 5.66692 18.0554 5.64075 17.9696L4.95924 15.7076C4.8913 15.483 4.69593 15.3199 4.46237 15.2927C4.43949 15.2899 4.41732 15.2884 4.39472 15.2884C4.18533 15.2884 3.99011 15.4 3.88413 15.5846L0.0781081 22.213C-0.0264426 22.3947 -0.0261515 22.6193 0.0796864 22.8024C0.184809 22.9841 0.37932 23.0957 0.58928 23.0957L8.23178 23.0786C8.46662 23.0786 8.67887 22.9384 8.77183 22.7209C8.86437 22.5049 8.8196 22.2545 8.65799 22.0842L7.04353 20.3788C6.98146 20.3145 6.95271 20.2215 6.96587 20.1342C6.97888 20.0426 7.03223 19.9654 7.11118 19.921L9.02342 18.8337C11.7209 21.7509 14.7239 23.8697 16.1679 24.8097C16.3633 24.937 16.5868 25 16.8104 25C17.0336 25 17.2569 24.937 17.4523 24.8097C19.4406 23.5178 24.3932 19.9954 27.4285 15.1983C27.9454 14.3814 28.3631 13.5544 28.6862 12.7275C28.3942 12.6846 28.1159 12.5758 27.8697 12.4056L25.5214 10.7889Z" fill="currentColor"/>
</svg>
