<svg width="22" height="22" viewBox="0 0 22 22" fill="none" xmlns="http://www.w3.org/2000/svg">
<path d="M12.8333 3.2085C12.8333 3.96933 12.2192 4.5835 11.4583 4.5835C10.6975 4.5835 10.0833 3.96933 10.0833 3.2085C10.0833 2.44766 10.6975 1.8335 11.4583 1.8335C12.2192 1.8335 12.8333 2.44766 12.8333 3.2085ZM7.79167 4.5835C7.03083 4.5835 6.41667 5.19766 6.41667 5.9585C6.41667 6.71933 7.03083 7.3335 7.79167 7.3335C8.5525 7.3335 9.16667 6.71933 9.16667 5.9585C9.16667 5.19766 8.5525 4.5835 7.79167 4.5835ZM12.8333 11.0002L12.1183 8.93766H14.8317L16.8117 7.94766C17.1508 7.79183 17.2883 7.37016 17.1142 7.031C17.0754 6.9495 17.0207 6.87661 16.9532 6.81661C16.8858 6.75662 16.8071 6.71074 16.7216 6.68169C16.6362 6.65264 16.5458 6.641 16.4557 6.64746C16.3657 6.65393 16.2779 6.67837 16.1975 6.71933L15.4458 7.09516L14.9967 6.32516C14.7308 5.72933 14.08 5.39016 13.4383 5.53683L11.1742 6.02266C10.5417 6.16016 10.0833 6.73766 10.0833 7.39766V8.03933L7.85583 9.52433H7.865C7.79167 9.5885 7.69083 9.671 7.63583 9.781L6.82 11.4035L5.18833 12.2193C4.84917 12.3752 4.71167 12.806 4.88583 13.1452C4.9688 13.3078 5.11279 13.4309 5.2863 13.4876C5.45981 13.5443 5.64871 13.5299 5.81167 13.4477L7.84667 12.4302L8.8 10.5418L10.0833 11.9168C9.16667 14.6668 2.75 18.3335 2.75 18.3335C2.75 18.3335 6.41667 20.1668 11 20.1668C15.5833 20.1668 19.25 18.3335 19.25 18.3335C19.25 18.3335 14.6667 14.6668 12.8333 11.0002ZM15.4458 10.166L15.1525 10.3127H14.0525L14.1075 10.4593C14.5842 11.4035 15.2808 12.3752 16.0417 13.2368L15.5558 10.111L15.4458 10.166Z" fill="white"/>
</svg>
