<svg width="61" height="60" viewBox="0 0 61 60" fill="none" xmlns="http://www.w3.org/2000/svg">
<path d="M48.6602 8.96391C49.0423 8.87159 49.3729 8.63298 49.5808 8.29942C49.7888 7.96587 49.8575 7.56401 49.7722 7.18031C49.6869 6.79661 49.4544 6.46173 49.1247 6.24771C48.795 6.03369 48.3945 5.95763 48.0093 6.03591L34.5093 9.03591C34.237 9.09618 33.987 9.23113 33.7872 9.42561C33.5874 9.6201 33.4458 9.86641 33.3783 10.1369L32.5382 13.4999H13.8333C13.4354 13.4999 13.0539 13.6579 12.7726 13.9392C12.4913 14.2206 12.3333 14.6021 12.3333 14.9999V25.4999C12.3333 27.489 13.1234 29.3967 14.53 30.8032C15.9365 32.2097 17.8441 32.9999 19.8333 32.9999H21.3333V34.4999C21.3328 36.6282 22.0866 38.6877 23.4607 40.3129C24.8349 41.938 26.7405 43.0236 28.8393 43.3769L28.8333 43.4999V50.9999H22.8333C22.4354 50.9999 22.0539 51.1579 21.7726 51.4392C21.4913 51.7206 21.3333 52.1021 21.3333 52.4999C21.3333 52.8977 21.4913 53.2793 21.7726 53.5606C22.0539 53.8419 22.4354 53.9999 22.8333 53.9999H37.8333C38.2311 53.9999 38.6126 53.8419 38.8939 53.5606C39.1752 53.2793 39.3333 52.8977 39.3333 52.4999C39.3333 52.1021 39.1752 51.7206 38.8939 51.4392C38.6126 51.1579 38.2311 50.9999 37.8333 50.9999H31.8333V43.4999L31.8273 43.3769C33.926 43.0236 35.8316 41.938 37.2058 40.3129C38.5799 38.6877 39.3337 36.6282 39.3333 34.4999V32.9999H40.8333C42.8224 32.9999 44.73 32.2097 46.1366 30.8032C47.5431 29.3967 48.3333 27.489 48.3333 25.4999V14.9999C48.3333 14.6021 48.1752 14.2206 47.8939 13.9392C47.6126 13.6579 47.2311 13.4999 46.8333 13.4999H35.6283L36.0633 11.7629L48.6602 8.96391ZM31.7882 16.4999L30.6632 20.9999H15.3333V16.4999H31.7882ZM45.3333 20.9999H33.7533L34.8783 16.4999H45.3333V20.9999Z" fill="#1F3F3E" fill-opacity="0.2"/>
</svg>
