<svg width="60" height="60" viewBox="0 0 60 60" fill="none" xmlns="http://www.w3.org/2000/svg">
<path d="M9.9796 1.97366C6.54601 2.01819 3.72179 4.9514 4.9757 10.2026L9.69835 11.5455C10.1577 9.5885 12.0468 8.36741 13.8398 8.03694L14.0624 3.29554C12.7499 2.38616 11.3155 1.95608 9.9796 1.97366ZM20.2499 2.18343C19.0546 2.17171 17.6952 2.60765 16.2421 3.62015L16.0312 8.07562C17.7538 8.46116 19.2538 9.66702 19.9452 11.3698L23.7421 9.98108C25.4765 5.79046 23.5898 2.21741 20.2499 2.18343ZM47.2382 2.30765C46.1015 2.29593 44.953 2.88772 45.328 4.13577C46.0312 6.49593 48.1054 6.09632 48.9609 4.09593C49.453 2.93343 48.3632 2.31937 47.2265 2.30882L47.2382 2.30765ZM34.078 2.96976C32.6249 2.95335 31.2421 4.36429 32.5663 7.13577C28.5585 7.05257 30.0702 12.6213 33.0819 11.0627C31.5116 15.9143 37.8515 16.676 37.0077 11.6393C40.7929 14.0158 42.5038 10.2155 38.7304 8.43655C43.6757 7.36194 39.5976 1.5178 36.4101 5.63343C36.3984 3.86038 35.2148 2.98382 34.078 2.97093V2.96976ZM35.2851 7.56468C36.0234 7.56468 36.621 8.15999 36.621 8.89358C36.621 9.62835 36.0234 10.2225 35.2851 10.2225C34.5468 10.2225 33.9609 9.62835 33.9609 8.89358C33.9609 8.15999 34.5468 7.56468 35.2851 7.56468ZM51.4687 7.71819C49.4296 7.7053 48.1523 10.3537 52.1835 11.9182C50.039 14.8244 56.0155 17.4729 55.0429 12.551C60.0468 12.3987 57.0585 5.90179 54.1054 9.43851C53.3202 8.20218 52.3241 7.72288 51.4687 7.71819ZM13.9921 10.2401C12.1991 10.7182 11.1749 12.5276 11.6437 14.2971C12.1171 16.0901 13.9218 17.133 15.703 16.6526C17.4843 16.1838 18.5273 14.3674 18.0468 12.5862C17.6484 11.0744 16.289 10.0959 14.8007 10.1241C14.5312 10.1358 14.2265 10.178 13.9921 10.2401ZM24.6913 11.9651L20.3554 13.5471C20.3202 14.9182 19.7929 16.1955 18.9023 17.1799L22.2187 20.5549C27.3398 20.9651 29.5312 14.7776 24.6913 11.9651ZM3.75695 12.1291C-0.485122 15.5627 4.44835 24.4221 8.93664 22.9104L11.6905 17.9651C10.064 16.7346 9.42062 15.4455 9.35851 13.7229L3.75695 12.1291ZM46.7929 14.5666C45.0351 14.5901 43.0663 15.7151 41.3437 18.3166L42.6796 24.094C42.8554 24.0823 43.0312 24.094 43.2069 24.1057C44.6718 24.2112 46.078 24.844 47.121 25.9338L51.7382 22.6877C52.371 18.0119 50.0038 14.6369 46.9569 14.5666H46.7929ZM56.0624 17.8596C53.6015 17.9299 53.4491 20.0393 55.1601 21.3869C57.1523 22.9338 58.664 17.7893 56.0624 17.8596ZM36.6913 18.2698C31.9921 18.3166 27.9843 22.0549 31.6054 28.6291L37.0077 28.6408C37.3944 26.4494 38.789 25.2776 40.5351 24.5276L39.1523 18.5862C38.3437 18.3635 37.4999 18.258 36.6913 18.2698ZM17.121 18.4807C16.0546 18.9612 14.7187 19.0549 13.6991 18.844L11.1046 23.5198C15.246 28.4885 18.9491 25.7112 20.2265 21.6448L17.121 18.4807ZM52.0429 25.1604L48.3163 27.7737C48.8788 29.1682 48.8905 30.6799 48.4101 32.0276L52.6288 34.5237C58.6757 33.6565 59.1327 26.1448 52.0429 25.1604ZM42.7968 26.2737C42.1523 26.2737 41.5077 26.4377 40.9101 26.7776C39.0937 27.8323 38.4843 30.1174 39.5273 31.9338C40.5819 33.7502 42.8671 34.3713 44.6835 33.3166C46.4999 32.2737 47.121 29.9768 46.0663 28.1604C45.4101 27.0237 44.2734 26.3557 43.0663 26.2737H42.7968ZM9.33507 27.6096C5.26867 27.6682 2.56164 31.3479 5.43273 37.1721L11.6671 39.1291C12.5624 37.4885 14.1562 36.2932 16.0546 35.9299L15.703 30.2112C13.5819 28.3948 11.3038 27.5744 9.33507 27.6096ZM22.6874 27.9377C21.1523 27.9612 19.4413 28.7463 17.9179 30.5627L18.246 35.883C19.8046 36.1291 21.1874 36.9494 22.1601 38.1213L26.7538 35.5198C28.5234 31.3362 25.9921 27.8791 22.6874 27.9377ZM31.2421 30.8088C27.6327 37.4182 34.1601 42.094 39.2343 40.2659L40.5585 35.5666C39.3749 35.0862 38.3202 34.219 37.6405 33.0354C37.2304 32.3323 36.996 31.594 36.8905 30.8323L31.2421 30.8088ZM47.3202 33.926C46.8984 34.4299 46.3827 34.8635 45.7851 35.2151C44.8124 35.7659 43.7577 36.0237 42.7148 36.0119L41.3085 41.0041C45.246 45.4573 51.9257 41.1448 51.4452 36.3635L47.3202 33.926ZM27.3046 37.7346L23.2499 40.0198C23.9179 41.8713 23.5898 44.051 22.6523 45.5744L26.1913 49.2893C34.1132 45.9963 31.8749 40.5119 27.3046 37.7346ZM17.2616 37.9924C14.9296 37.9924 13.0663 39.8674 13.0663 42.1877C13.0663 44.5198 14.9296 46.383 17.2616 46.383C19.5819 46.383 21.4452 44.5198 21.4452 42.1877C21.4452 39.8674 19.5819 37.9924 17.2616 37.9924ZM4.74132 39.2463C0.440659 43.7346 2.04601 52.7463 9.89757 52.0784L12.9257 46.8635C11.2136 45.3049 10.6066 43.2541 10.964 41.2034L4.74132 39.2463ZM54.6562 41.8244C52.8398 41.8362 49.7929 44.5315 53.039 45.2229C52.6523 49.676 58.7929 45.8674 55.7343 43.5823C55.9687 42.2815 55.4179 41.8127 54.6562 41.8244ZM40.6874 44.6838C39.7499 44.6838 38.7773 45.5159 38.414 47.6604C35.6132 44.0627 31.5937 48.1994 36.0116 50.801C30.4335 53.6604 36.3163 57.4807 38.578 54.0237C39.0819 59.8244 45.703 56.1565 41.9882 52.758C46.6991 53.5315 46.6874 48.9846 42.1054 49.1252C43.6991 46.9338 42.246 44.6721 40.6874 44.6838ZM21.1874 47.2034C19.0663 48.5862 16.9687 48.9846 14.7655 48.0588L11.3741 53.8948C13.9101 59.9182 25.6054 57.0705 25.4765 51.4807L25.371 51.5862L21.1874 47.2034ZM39.5155 49.6409C40.2538 49.6409 40.8398 50.2385 40.8398 50.9651C40.8398 51.7034 40.2538 52.301 39.5155 52.301C38.7773 52.301 38.1913 51.7034 38.1913 50.9651C38.1913 50.2385 38.7773 49.6409 39.5155 49.6409ZM52.1835 50.4612C50.7538 50.4143 50.2851 52.8166 52.9335 54.3166C50.414 57.6916 56.3788 60.258 55.7226 55.1135C60.0234 55.9338 56.8476 50.883 54.7265 52.6877C53.8124 51.1057 52.8866 50.4846 52.1835 50.4612Z" fill="white" fill-opacity="0.2"/>
</svg>
