<svg width="14" height="22" viewBox="0 0 14 22" fill="none" xmlns="http://www.w3.org/2000/svg">
<path fill-rule="evenodd" clip-rule="evenodd" d="M12.6767 0.117017C12.4635 0.200244 12.4505 0.197643 12.3204 0.0545963C12.2424 -0.0234288 12.1332 -0.018227 12.0421 0.0728029C11.9511 0.163832 11.808 0.379702 11.7898 0.452526C11.7794 0.49674 11.7612 0.546156 11.7482 0.561761C11.7326 0.579967 11.7092 0.780232 11.6962 1.0039C11.6676 1.43825 11.6416 1.53448 11.5298 1.62291C11.4933 1.65152 11.3841 1.75035 11.2905 1.83878C11.1942 1.92981 11.059 2.05465 10.9862 2.11186C10.916 2.17168 10.8015 2.27572 10.7339 2.34334C10.6663 2.41356 10.6065 2.46818 10.5961 2.46818C10.5883 2.46818 10.5674 2.48118 10.5492 2.49679C10.4192 2.60863 9.75858 2.95454 9.60773 2.98835C9.44388 3.02216 9.1968 3.09238 9.13958 3.11839C9.11097 3.1314 9.04595 3.1496 8.99653 3.16C8.94712 3.16781 8.8899 3.18601 8.86649 3.19902C8.75986 3.26144 8.47116 3.31085 8.21628 3.31085C7.80015 3.31085 7.15774 3.25624 7.07711 3.21202C6.96527 3.1496 6.76501 3.06637 6.7286 3.06637C6.68178 3.06377 6.59075 2.98575 6.55434 2.91813C6.52053 2.8505 6.51533 2.45258 6.54914 2.43177C6.55954 2.42397 6.58035 2.31213 6.58815 2.18209C6.59856 2.05465 6.61676 1.94281 6.62977 1.93501C6.64017 1.9272 6.65838 1.84918 6.66878 1.76075C6.67918 1.66972 6.69739 1.58389 6.70779 1.57089C6.7494 1.51887 6.79362 1.10794 6.77541 0.92588C6.75721 0.725614 6.71039 0.629383 6.55694 0.470731C6.4373 0.348492 6.35408 0.296475 6.24484 0.273067C6.20063 0.262664 6.15641 0.241857 6.14861 0.228853C6.13821 0.215848 6.10179 0.205446 6.06278 0.205446C6.02377 0.205446 5.93534 0.174235 5.86252 0.140424C5.79229 0.104012 5.71167 0.0754028 5.68826 0.0754028C5.66485 0.0754028 5.63624 0.0623991 5.62844 0.0493944C5.62064 0.0337898 5.4932 0.0233861 5.34235 0.0233861C5.1915 0.0233861 5.06406 0.0337898 5.05625 0.0493944C5.04845 0.0623991 5.00164 0.0754028 4.95482 0.0754028C4.83778 0.0754028 4.5959 0.208047 4.55429 0.293875C4.53609 0.330286 4.51008 0.361496 4.49707 0.361496C4.48407 0.361496 4.46586 0.40311 4.45546 0.452526C4.44766 0.501942 4.42945 0.551358 4.41645 0.55916C4.40344 0.566963 4.39304 0.764627 4.39304 0.996102C4.39304 1.32901 4.40084 1.43825 4.43205 1.49546C4.46326 1.55268 4.46846 1.6125 4.45546 1.74515C4.43985 1.9116 4.44506 1.92981 4.54909 2.14828C4.71034 2.48899 4.74155 2.54621 4.76236 2.54621C4.77016 2.54621 4.78577 2.56701 4.79357 2.59042C4.81438 2.65544 4.97563 2.8323 5.01464 2.8323C5.06146 2.8323 5.09787 2.95454 5.06926 3.02736C5.04845 3.08458 5.03805 3.08978 4.97303 3.06377C4.93402 3.05077 4.8898 3.02736 4.8742 3.01436C4.86119 3.00395 4.80137 2.98575 4.74415 2.97534C4.68693 2.96494 4.62972 2.94674 4.61411 2.93633C4.60111 2.92333 4.50227 2.90512 4.39824 2.89732C4.29421 2.88692 4.20318 2.86611 4.19537 2.85571C4.17717 2.8245 3.98471 2.8245 3.9665 2.85571C3.9587 2.86611 3.89628 2.88432 3.82606 2.89212C3.52176 2.92853 3.25387 3.20422 3.12383 3.62296C3.01979 3.95586 3.07181 4.26016 3.26427 4.45263C3.3371 4.52545 3.3371 4.52805 3.28768 4.56446C3.25907 4.58527 3.18885 4.61388 3.13163 4.62688C3.07441 4.64249 3.00939 4.66589 2.98598 4.6789C2.86894 4.74392 2.76491 4.73612 2.61146 4.65549C2.4138 4.54886 2.33837 4.55146 2.17192 4.6711C2.03928 4.76993 1.8182 4.9884 1.8182 5.02221C1.8182 5.03261 1.74018 5.08463 1.64395 5.13925C1.54511 5.19387 1.44368 5.25108 1.41507 5.26929C1.38646 5.28489 1.25122 5.35512 1.11598 5.42534C0.980732 5.49296 0.85329 5.56319 0.835084 5.58139C0.816878 5.5996 0.783067 5.6152 0.762261 5.6152C0.741453 5.6152 0.725849 5.62561 0.725849 5.63861C0.725849 5.65161 0.686836 5.67502 0.642622 5.69583C0.595807 5.71403 0.54639 5.74524 0.535987 5.76345C0.525583 5.78166 0.502176 5.79726 0.489171 5.79726C0.473567 5.79726 0.447558 5.81287 0.426752 5.82847C0.408545 5.84668 0.36173 5.88569 0.320117 5.9143C0.0756371 6.09116 -0.0414001 6.31743 0.0132176 6.51249C0.0314231 6.58012 0.273301 6.74657 0.387739 6.77258C0.437155 6.78298 0.491772 6.80119 0.504777 6.81159C0.548991 6.848 0.832483 6.91823 1.01974 6.93903C1.24342 6.96764 1.29803 7.01186 1.29803 7.17051C1.29803 7.23293 1.31624 7.32396 1.33965 7.37337C1.37086 7.44099 1.37866 7.50342 1.36826 7.61265C1.36474 7.64894 1.3586 7.70842 1.35148 7.77733C1.34278 7.86151 1.33262 7.95975 1.32404 8.04699C1.30844 8.20304 1.28503 8.35649 1.27203 8.3851C1.25902 8.41371 1.24342 8.51254 1.23301 8.60617C1.22261 8.6998 1.20701 8.78563 1.194 8.80124C1.1836 8.81424 1.16019 8.91567 1.14198 9.02231C1.12378 9.12894 1.10037 9.22778 1.08997 9.24338C1.07696 9.25638 1.06136 9.3136 1.05095 9.36822C1.04055 9.42024 1.02234 9.47225 1.00934 9.48006C0.996336 9.48786 0.985932 9.51387 0.985932 9.53728C0.983333 9.56068 0.962525 9.62831 0.933916 9.68552C0.905306 9.74274 0.8845 9.80256 0.881899 9.82077C0.881899 9.86238 0.772664 10.0731 0.746655 10.0835C0.736252 10.0887 0.725849 10.1069 0.725849 10.1251C0.725849 10.1433 0.705042 10.1849 0.679034 10.2135C0.494373 10.4398 0.457962 10.5074 0.486571 10.5646C0.502176 10.5958 0.520382 10.6452 0.528184 10.6738C0.535987 10.7025 0.585403 10.7597 0.63742 10.8039C0.905306 11.025 1.06396 11.2382 1.06396 11.3761C1.06396 11.4723 0.91571 11.7246 0.785668 11.8468C0.689437 11.9353 0.694638 12.0705 0.798672 12.1875C1.00934 12.4242 1.06396 12.5413 1.06396 12.7545C1.06396 12.8664 1.05095 12.9314 1.02495 12.96C1.00414 12.9808 0.985932 13.0068 0.985932 13.0146C0.985932 13.025 0.944319 13.103 0.894904 13.1863C0.822079 13.3137 0.803874 13.3683 0.803874 13.4854C0.803874 13.5608 0.814278 13.6258 0.827281 13.6258C0.871496 13.6258 0.881899 13.7116 0.842887 13.7558C0.785668 13.8183 0.793471 13.9301 0.855891 13.9509C0.8845 13.9587 0.907907 13.9795 0.907907 13.9925C0.907907 14.0055 0.920912 14.0159 0.936517 14.0159C1.00154 14.0159 1.23561 14.146 1.26942 14.2032C1.29283 14.2396 1.31364 14.3774 1.32404 14.5621C1.33445 14.726 1.35785 14.973 1.37606 15.1083C1.41507 15.3944 1.39947 15.5166 1.31104 15.6128C1.27463 15.6519 1.24602 15.6935 1.24602 15.7065C1.24602 15.7195 1.23041 15.7403 1.21221 15.7507C1.13938 15.7949 1.06396 15.9692 1.06396 16.0914C1.06656 16.2813 1.10297 16.3125 1.32144 16.2995C1.4957 16.2917 1.5061 16.2865 1.60233 16.1772C1.8052 15.951 1.89623 15.8625 1.93524 15.8625C2.01847 15.8625 2.06008 15.7429 2.04708 15.5244C2.03928 15.4126 2.02367 15.3033 2.00807 15.2851C1.99246 15.2669 1.97165 15.2045 1.96125 15.1473C1.95085 15.0901 1.93264 15.0303 1.92224 15.0173C1.87542 14.9548 1.86502 14.7312 1.83901 13.4828C1.8052 11.8728 1.8 9.97162 1.82601 8.76222C1.85201 7.58924 1.85722 7.56844 1.98466 7.84413C2.02367 7.92735 2.1121 8.09901 2.18232 8.22905C2.25254 8.35649 2.35138 8.54375 2.40079 8.64519C2.45021 8.74402 2.51783 8.87406 2.54904 8.93128C2.56732 8.9648 2.58739 9.00278 2.60401 9.03424C2.61577 9.05649 2.6258 9.07548 2.63227 9.08733C2.68949 9.19396 2.77531 9.35262 2.86374 9.50346C2.91316 9.58929 2.95997 9.67772 2.97038 9.69853C2.97709 9.70927 2.99004 9.73179 3.00564 9.75893C3.02027 9.78436 3.03726 9.81391 3.0536 9.84157C3.09002 9.89879 3.13163 9.97422 3.14984 10.0106C3.16544 10.047 3.22006 10.1303 3.26687 10.1953C3.31369 10.2629 3.3527 10.3253 3.3527 10.3331C3.3527 10.3409 3.39952 10.419 3.45673 10.5022C3.51395 10.5854 3.56077 10.6634 3.56077 10.6738C3.56077 10.6842 3.60758 10.7571 3.6648 10.8403C3.72202 10.9209 3.76884 11.0016 3.76884 11.0198C3.76884 11.038 3.78184 11.051 3.79484 11.051C3.81045 11.051 3.83126 11.0718 3.83906 11.0952C3.86247 11.1602 3.9587 11.2928 3.99771 11.3189C4.01332 11.3293 4.02892 11.3527 4.02892 11.3657C4.02892 11.3943 4.16417 11.6023 4.22919 11.6752C4.32282 11.7818 4.39304 11.8806 4.39304 11.9066C4.39304 11.9222 4.40344 11.9353 4.41645 11.9353C4.42945 11.9353 4.46066 11.9665 4.48407 12.0055C4.51788 12.0575 4.52308 12.0861 4.50227 12.1173C4.48667 12.1433 4.46586 12.2083 4.45546 12.263C4.44766 12.3202 4.42945 12.3748 4.41905 12.3904C4.40864 12.4034 4.39044 12.4554 4.38003 12.5022C4.36963 12.5491 4.34622 12.6193 4.32542 12.6583C4.30461 12.6973 4.28901 12.7519 4.28901 12.7831C4.28901 12.8117 4.2708 12.8586 4.24999 12.8872C4.22919 12.9132 4.21098 12.9522 4.21098 12.9704C4.21098 12.9912 4.19538 13.0432 4.17457 13.0874C4.15376 13.1342 4.10435 13.2461 4.06793 13.3397C3.99251 13.527 3.86767 13.8027 3.80265 13.9249L3.76487 13.9969C3.6186 14.2758 3.56383 14.3802 3.50207 14.4803C3.4651 14.5402 3.42563 14.5986 3.36252 14.6919L3.3553 14.7026C3.32283 14.7513 3.28585 14.8058 3.25036 14.8582C3.20059 14.9316 3.15376 15.0007 3.12643 15.0433C3.07961 15.1135 3.025 15.1915 3.00679 15.2123C2.98598 15.2331 2.94957 15.2851 2.92096 15.3294C2.87935 15.397 2.71289 15.6181 2.67648 15.6545C2.66868 15.6623 2.64787 15.6987 2.62967 15.7351C2.60886 15.7741 2.56725 15.8313 2.53604 15.8651C2.50483 15.8989 2.47102 15.9484 2.46061 15.9718C2.45281 15.9978 2.4346 16.0186 2.4216 16.0186C2.40859 16.0186 2.38259 16.055 2.36438 16.0966C2.34617 16.1408 2.32277 16.1746 2.31236 16.1746C2.29936 16.1746 2.26295 16.2188 2.23174 16.2709C2.19793 16.3255 2.15891 16.3827 2.14331 16.3983C2.1303 16.4139 2.08869 16.4685 2.05228 16.5205C2.01587 16.5726 1.97946 16.6168 1.96905 16.6168C1.95605 16.6168 1.94825 16.6298 1.94825 16.6454C1.94825 16.674 1.8182 16.8587 1.78699 16.8717C1.77399 16.8769 1.76619 16.8977 1.76619 16.9159C1.76619 16.9367 1.75058 16.9627 1.73238 16.9731C1.69596 16.9991 1.59973 17.1317 1.57632 17.1942C1.56852 17.2202 1.54772 17.241 1.53211 17.241C1.51911 17.241 1.5061 17.2566 1.5061 17.2748C1.5061 17.2956 1.48269 17.332 1.45409 17.358C1.42548 17.384 1.40207 17.4204 1.40207 17.4412C1.40207 17.4594 1.38386 17.4829 1.36306 17.4907C1.34225 17.5011 1.32404 17.5193 1.32404 17.5323C1.32404 17.5453 1.30324 17.5843 1.27723 17.6181C1.25909 17.6423 1.23471 17.6774 1.21619 17.7041C1.21082 17.7118 1.20589 17.7189 1.2018 17.7247C1.19462 17.7358 1.1824 17.7545 1.16704 17.7779C1.15431 17.7973 1.13943 17.82 1.12349 17.8442C1.06818 17.9285 1.00009 18.0322 0.965126 18.0863C0.94692 18.1149 0.913109 18.1799 0.892303 18.2293C0.868895 18.2787 0.835084 18.3385 0.816878 18.3593C0.788269 18.3931 0.751857 18.4504 0.63742 18.6584C0.625481 18.6803 0.593752 18.7296 0.560871 18.7807C0.550914 18.7961 0.540421 18.8124 0.530785 18.8275C0.294109 19.1942 0.101645 19.691 0.101645 19.9328C0.101645 20.0395 0.11465 20.0785 0.161465 20.1227C0.195276 20.1539 0.242091 20.1799 0.2655 20.1799C0.288907 20.1799 0.314915 20.1903 0.322717 20.2059C0.33052 20.2189 0.36173 20.2319 0.39034 20.2319C0.418949 20.2319 0.507378 20.2684 0.588004 20.31C0.66863 20.3542 0.75966 20.388 0.793471 20.388C0.827281 20.388 0.868895 20.4114 0.887101 20.44C0.91571 20.4842 0.949521 20.492 1.08997 20.492C1.1836 20.492 1.27203 20.4816 1.28503 20.4686C1.30064 20.4556 1.35785 20.4322 1.41507 20.414C1.47229 20.3958 1.56592 20.349 1.62314 20.3126C1.85722 20.1617 1.90143 20.1461 2.03667 20.1643C2.1069 20.1721 2.17712 20.1903 2.19272 20.2059C2.20573 20.2189 2.24474 20.2319 2.27595 20.2319C2.30976 20.2319 2.35138 20.2476 2.36958 20.2632C2.4294 20.3178 2.56985 20.414 2.59065 20.414C2.60106 20.414 2.64267 20.4296 2.67908 20.4504C2.71549 20.4686 2.80392 20.4946 2.87415 20.505C2.94437 20.5154 3.0328 20.5388 3.07181 20.5597C3.13943 20.5935 3.13943 20.5987 3.10302 20.6741C3.07961 20.7157 3.05621 20.8171 3.0484 20.8952C3.0406 20.9758 3.02239 21.046 3.01199 21.0538C2.98078 21.072 2.98078 21.4465 3.01199 21.4647C3.025 21.4725 3.0432 21.5584 3.0536 21.6546C3.06401 21.7534 3.08742 21.8705 3.10822 21.9199C3.14463 22.0057 3.14723 22.0057 3.27728 21.9953C3.36571 21.9849 3.42032 21.9667 3.43593 21.9381C3.44893 21.9147 3.47234 21.8965 3.48795 21.8965C3.55297 21.8965 3.93529 21.5428 3.9639 21.4543C3.9717 21.4257 3.98991 21.4023 4.00291 21.4023C4.01332 21.4023 4.02892 21.3789 4.03672 21.3477C4.04453 21.3191 4.07314 21.2879 4.09914 21.2827C4.14596 21.2697 4.17457 21.2411 4.30981 21.0668C4.35663 21.0044 4.35923 21.0044 4.44766 21.0486C4.49707 21.0746 4.5959 21.1006 4.66613 21.1084C4.77536 21.1188 4.80657 21.111 4.86119 21.0642C4.91581 21.0148 4.94702 21.0096 5.05365 21.0226C5.12388 21.0304 5.1941 21.0486 5.2097 21.0642C5.24351 21.098 5.57122 21.098 5.60503 21.0642C5.62064 21.0486 5.71427 21.0278 5.8131 21.02C5.97175 21.007 6.01336 21.0148 6.14081 21.072C6.24744 21.1214 6.29166 21.1578 6.31246 21.2151C6.32547 21.2567 6.37488 21.3269 6.4191 21.3737C6.49452 21.4517 6.50493 21.4543 6.7208 21.4543C6.84304 21.4543 6.96267 21.4439 6.98868 21.4309C7.07711 21.3815 7.54786 21.3477 7.69091 21.3763C7.76373 21.3945 7.83136 21.4179 7.84176 21.4309C7.85996 21.4595 8.15646 21.4621 8.17467 21.4309C8.18247 21.4205 8.23449 21.4023 8.2891 21.3919C8.34632 21.3841 8.42175 21.3529 8.45816 21.3243C8.49457 21.2957 8.53879 21.2723 8.55959 21.2723C8.5804 21.2723 8.60901 21.2593 8.62461 21.2437C8.64282 21.2255 8.66883 21.2255 8.70004 21.2411C8.72869 21.2541 8.78593 21.2801 8.82748 21.3009C8.8899 21.3321 8.9081 21.3581 8.91331 21.4283C8.92371 21.5636 8.99133 21.6884 9.06936 21.7196C9.14738 21.7482 9.63634 21.7274 9.68316 21.6936C9.69876 21.6806 9.76118 21.6572 9.8184 21.6416C9.87822 21.6234 9.94064 21.5922 9.95885 21.5714C9.98225 21.5428 10.0447 21.5324 10.1825 21.5324C10.2866 21.5324 10.3776 21.522 10.3854 21.509C10.3932 21.496 10.4426 21.4778 10.4946 21.4673C10.5909 21.4517 10.6143 21.4361 10.7287 21.3321C10.7781 21.2853 10.7911 21.2489 10.7911 21.15C10.7885 21.0824 10.7729 20.9966 10.7547 20.9602C10.7235 20.9056 10.7235 20.8848 10.7547 20.8249C10.7755 20.7859 10.7911 20.7313 10.7911 20.7027C10.7911 20.6741 10.8041 20.6429 10.8171 20.6351C10.8561 20.6117 10.8509 19.9068 10.8119 19.8444C10.7755 19.7846 10.8197 19.7118 10.8925 19.7118C10.9576 19.7118 11.0512 19.6155 11.0512 19.5479C11.0512 19.5141 11.0616 19.4777 11.0746 19.4621C11.0876 19.4491 11.1032 19.4023 11.1084 19.3607C11.1162 19.2878 11.124 19.2826 11.2463 19.267C11.3867 19.2514 11.5454 19.1942 11.5454 19.1578C11.5454 19.124 11.7144 18.9367 11.8341 18.8405C11.8939 18.7911 12.141 18.6428 12.375 18.518C12.6195 18.3853 12.6507 18.2709 12.4843 18.1071C12.3542 17.9796 12.3386 17.9666 12.1826 17.8964C12.1123 17.8626 12.0317 17.8236 12.0057 17.8106C11.9797 17.795 11.8575 17.7768 11.7326 17.7689C11.6078 17.7611 11.4647 17.7377 11.4153 17.7169C11.1864 17.6207 10.9758 17.5089 10.8509 17.4178C10.7339 17.332 10.7131 17.306 10.7131 17.2332C10.7131 17.1864 10.7235 17.1369 10.7365 17.1213C10.7495 17.1083 10.7703 16.9575 10.7807 16.7858C10.7885 16.6142 10.8067 16.4607 10.8197 16.4451C10.8327 16.4295 10.8509 16.1772 10.8587 15.8859C10.8769 15.3788 10.8743 15.3502 10.8197 15.2331C10.7911 15.1655 10.7651 15.0901 10.7651 15.0615C10.7651 15.0355 10.7495 14.9782 10.7287 14.9366C10.7079 14.895 10.6845 14.7858 10.6741 14.6922C10.6637 14.5985 10.6455 14.5101 10.6325 14.4971C10.6221 14.4815 10.6039 14.3462 10.5935 14.198C10.583 14.0471 10.5674 13.9119 10.557 13.8989C10.5466 13.8833 10.5284 13.761 10.518 13.6258C10.5076 13.4906 10.4894 13.3657 10.479 13.3527C10.4686 13.3371 10.4452 13.1915 10.427 13.0276C10.4088 12.8638 10.3854 12.7155 10.375 12.7025C10.362 12.6869 10.3464 12.5933 10.336 12.4944C10.3256 12.393 10.3074 12.2994 10.297 12.2864C10.2866 12.2708 10.2631 12.1511 10.2475 12.0159C10.2293 11.8806 10.2059 11.7532 10.1955 11.7298C10.1825 11.7064 10.1643 11.6128 10.1539 11.5191C10.1435 11.4255 10.1253 11.3371 10.1149 11.3241C10.1045 11.3084 10.0863 11.2226 10.0759 11.129C10.0655 11.0354 10.0473 10.9469 10.0369 10.9339C10.0265 10.9183 10.0031 10.8143 9.98485 10.6999C9.96925 10.5854 9.94324 10.4788 9.93284 10.4658C9.92243 10.4502 9.90423 10.3956 9.89643 10.3383C9.88602 10.2837 9.86782 10.2187 9.85741 10.1953C9.71437 9.90139 9.71177 9.87799 9.8054 9.80256C9.84961 9.76615 9.90943 9.71673 9.93804 9.69073C9.96925 9.66732 10.0031 9.64651 10.0135 9.64651C10.0525 9.64651 10.2319 9.45145 10.2761 9.36042C10.3568 9.19396 10.427 9.02491 10.427 9.0015C10.427 8.98069 10.5961 8.63998 10.6767 8.49954C10.6923 8.47353 10.7365 8.42151 10.7729 8.3877C10.8119 8.35129 10.8431 8.31748 10.8431 8.30968C10.8431 8.29667 10.9446 8.13542 10.9914 8.073C11.0512 7.99498 11.1734 7.80511 11.2047 7.74789C11.2229 7.71148 11.2723 7.65426 11.3165 7.62045C11.3945 7.55803 11.3997 7.55803 11.4725 7.59965C11.5142 7.62305 11.5766 7.64386 11.6104 7.64386C11.678 7.64386 11.8054 7.52422 11.8054 7.4618C11.8054 7.43839 11.821 7.39678 11.8419 7.36817C11.8627 7.33956 11.8939 7.24073 11.9121 7.1497C11.9277 7.05607 11.9511 6.96764 11.9615 6.95464C11.9719 6.93903 11.9901 6.8558 12.0005 6.76478C12.0109 6.67635 12.0265 6.59832 12.0395 6.59052C12.0499 6.58272 12.0681 6.48649 12.0785 6.37725C12.0889 6.26541 12.1071 6.16138 12.1175 6.14837C12.128 6.13277 12.154 5.94551 12.1722 5.73224C12.1904 5.51637 12.2138 5.32911 12.2242 5.3161C12.2372 5.3005 12.2528 5.08463 12.2632 4.84015C12.2736 4.59307 12.2918 4.385 12.3048 4.3772C12.3152 4.3694 12.3256 3.97147 12.3256 3.49031C12.3256 2.61651 12.3256 2.61643 12.3932 2.55401C12.4609 2.49159 12.4609 2.48639 12.4427 2.27312C12.4296 2.10406 12.4323 2.05205 12.4609 2.03384C12.4947 2.01303 12.5623 1.93241 12.6299 1.82837C12.6481 1.79976 12.7001 1.71914 12.747 1.64891C12.8458 1.50327 12.9498 1.25879 12.9498 1.18076C12.9498 1.14955 12.968 1.10014 12.9914 1.06633C13.0278 1.01691 13.0278 0.996102 13.0018 0.944085C12.9732 0.892068 12.9732 0.873863 13.0096 0.83485C13.0643 0.77503 13.0721 0.416114 13.0226 0.366698C12.9992 0.34329 12.9992 0.327685 13.0226 0.304277C13.0408 0.286072 13.0539 0.228853 13.0539 0.174235C13.0539 0.129967 13.0539 0.105527 13.0417 0.0920343C13.0267 0.0754028 12.9933 0.0754028 12.9186 0.0754028C12.8432 0.0780037 12.7339 0.0962103 12.6767 0.117017ZM10.4504 4.42922C10.544 4.41882 10.8691 4.17694 11.0902 3.95327C11.1058 3.94026 11.1318 3.92726 11.1526 3.92466C11.1838 3.92466 11.1812 3.93246 11.15 3.96887C11.0538 4.07551 10.7833 4.61128 10.7131 4.83235C10.6143 5.14185 10.6429 5.22508 10.955 5.57359C10.994 5.61781 11.0252 5.66722 11.0252 5.68803C11.0252 5.70624 10.9238 5.82587 10.7989 5.95332C10.6715 6.07816 10.5492 6.2108 10.5232 6.24461C10.323 6.5099 9.92243 6.91043 9.83661 6.93123C9.79759 6.94164 9.74037 6.96504 9.71176 6.98325C9.68316 7.00406 9.63634 7.01966 9.60773 7.01966C9.57652 7.01966 9.54271 7.03007 9.5271 7.04047C9.5141 7.05087 9.43347 7.08988 9.34764 7.1211C9.11357 7.21473 8.96532 7.27715 8.88729 7.32136C8.82228 7.35517 8.81447 7.35517 8.79106 7.31096C8.67403 7.09249 8.66883 6.16398 8.77806 5.2953C8.79627 5.15226 8.91331 5.01181 9.06936 4.94679C9.11877 4.92598 9.17599 4.89217 9.1968 4.87136C9.2176 4.85056 9.25402 4.83495 9.28002 4.83495C9.30343 4.83495 9.33464 4.82455 9.35025 4.81154C9.36325 4.80114 9.46208 4.75693 9.56872 4.71791C9.67535 4.6763 9.77419 4.63469 9.78719 4.62168C9.80279 4.61128 9.8288 4.60088 9.84961 4.60088C9.87042 4.60088 9.92243 4.58527 9.96665 4.56447C10.0135 4.54366 10.1149 4.51245 10.1929 4.49684C10.2709 4.47864 10.3464 4.45783 10.362 4.45003C10.375 4.44222 10.414 4.43182 10.4504 4.42922ZM2.96257 8.18744C2.96257 8.21345 3.06401 8.32008 3.08741 8.32008C3.10042 8.32008 3.14723 8.3617 3.19665 8.41111C3.24606 8.46053 3.29548 8.50214 3.30588 8.50214C3.31629 8.50214 3.3657 8.54115 3.41252 8.58537C3.46194 8.63218 3.55036 8.71281 3.61278 8.76223C3.75323 8.87926 3.87807 8.9911 4.04452 9.15235C4.11995 9.22518 4.18757 9.2824 4.19797 9.2824C4.20838 9.2824 4.24999 9.3136 4.2864 9.35262C4.32542 9.39423 4.40604 9.45925 4.46586 9.50087C4.52568 9.54248 4.60371 9.6023 4.64012 9.63611C4.70514 9.69593 4.79097 9.75055 4.81958 9.75055C4.82738 9.75055 4.83518 9.57629 4.83518 9.36302C4.83518 9.13155 4.84559 8.96769 4.86119 8.95729C4.895 8.93648 4.895 8.59837 4.86379 8.56456C4.85079 8.55156 4.83518 8.49954 4.82998 8.45012C4.82718 8.41745 4.82538 8.39651 4.81473 8.38212C4.79571 8.35641 4.74843 8.35163 4.61671 8.33829C4.50227 8.32788 4.39564 8.30708 4.38263 8.29668C4.36703 8.28367 4.31241 8.26546 4.263 8.25506C4.21358 8.24466 4.15116 8.22125 4.12775 8.20564C4.09134 8.18484 4.07573 8.18484 4.06013 8.20825C4.04973 8.22385 4.00031 8.28627 3.95089 8.34349C3.87547 8.43712 3.84946 8.45012 3.75843 8.45012C3.69861 8.45012 3.62059 8.43452 3.58157 8.41371C3.54256 8.39291 3.47754 8.3695 3.43333 8.35909C3.39171 8.35129 3.3423 8.32528 3.32409 8.30448C3.30849 8.28367 3.26947 8.26807 3.23826 8.26807C3.20965 8.26807 3.13423 8.24466 3.07441 8.21605C3.01199 8.19004 2.96257 8.17444 2.96257 8.18744ZM9.40226 8.21865C9.41527 8.20565 9.47249 8.19004 9.52971 8.18224C9.87302 8.14843 9.89903 8.18744 9.65975 8.35909C9.61814 8.3877 9.56872 8.42932 9.55051 8.45012C9.43608 8.57497 9.26702 8.73622 9.25141 8.73622C9.24101 8.73622 9.22541 8.71021 9.215 8.6764C9.2072 8.64519 9.17599 8.56716 9.14738 8.50734C9.09797 8.39551 9.09797 8.39031 9.14478 8.33829C9.2124 8.25506 9.23581 8.24206 9.31123 8.24206C9.34764 8.24206 9.38666 8.23165 9.40226 8.21865Z" fill="white"/>
</svg>
