<svg width="60" height="60" viewBox="0 0 60 60" fill="none" xmlns="http://www.w3.org/2000/svg">
<path d="M35.0002 8.75C35.0002 10.825 33.3252 12.5 31.2502 12.5C29.1752 12.5 27.5002 10.825 27.5002 8.75C27.5002 6.675 29.1752 5 31.2502 5C33.3252 5 35.0002 6.675 35.0002 8.75ZM21.2502 12.5C19.1752 12.5 17.5002 14.175 17.5002 16.25C17.5002 18.325 19.1752 20 21.2502 20C23.3252 20 25.0002 18.325 25.0002 16.25C25.0002 14.175 23.3252 12.5 21.2502 12.5ZM35.0002 30L33.0502 24.375H40.4502L45.8502 21.675C46.7752 21.25 47.1502 20.1 46.6752 19.175C46.5695 18.9527 46.4202 18.7539 46.2364 18.5903C46.0525 18.4267 45.8377 18.3016 45.6046 18.2223C45.3716 18.1431 45.1251 18.1114 44.8796 18.129C44.6341 18.1466 44.3946 18.2133 44.1752 18.325L42.1252 19.35L40.9002 17.25C40.1752 15.625 38.4002 14.7 36.6502 15.1L30.4752 16.425C28.7502 16.8 27.5002 18.375 27.5002 20.175V21.925L21.4252 25.975H21.4502C21.2502 26.15 20.9752 26.375 20.8252 26.675L18.6002 31.1L14.1502 33.325C13.2252 33.75 12.8502 34.925 13.3252 35.85C13.5515 36.2934 13.9442 36.6292 14.4174 36.7838C14.8906 36.9384 15.4058 36.8993 15.8502 36.675L21.4002 33.9L24.0002 28.75L27.5002 32.5C25.0002 40 7.50024 50 7.50024 50C7.50024 50 17.5002 55 30.0002 55C42.5002 55 52.5002 50 52.5002 50C52.5002 50 40.0002 40 35.0002 30ZM42.1252 27.725L41.3252 28.125H38.3252L38.4752 28.525C39.7752 31.1 41.6752 33.75 43.7502 36.1L42.4252 27.575L42.1252 27.725Z" fill="#1F3F3E" fill-opacity="0.2"/>
</svg>
