<svg width="50" height="50" viewBox="0 0 50 50" fill="none" xmlns="http://www.w3.org/2000/svg">
<path d="M26.5625 39.5168C27.0096 39.4013 27.4057 39.1406 27.6885 38.7756C27.9714 38.4105 28.1249 37.9619 28.125 37.5001V35.9855C28.1248 35.8195 28.0723 35.6578 27.9751 35.5232C27.8779 35.3886 27.7409 35.2879 27.5833 35.2355C25.9065 34.6764 24.0935 34.6764 22.4167 35.2355C22.2591 35.2879 22.1221 35.3886 22.0249 35.5232C21.9277 35.6578 21.8752 35.8195 21.875 35.9855V37.5001C21.8751 37.9619 22.0286 38.4105 22.3115 38.7756C22.5943 39.1406 22.9904 39.4013 23.4375 39.5168V46.3543C23.4375 46.7687 23.6021 47.1661 23.8951 47.4591C24.1882 47.7521 24.5856 47.9168 25 47.9168C25.4144 47.9168 25.8118 47.7521 26.1049 47.4591C26.3979 47.1661 26.5625 46.7687 26.5625 46.3543V39.5168Z" fill="#1F3F3E"/>
<path fill-rule="evenodd" clip-rule="evenodd" d="M22.2229 10.6958L21.1771 9.95617C19.6847 8.9 17.9013 8.33295 16.0729 8.33325H14.7979C13.9542 8.33325 13.1042 8.38534 12.3104 8.66659C7.34584 10.4291 3.93126 16.8645 4.17917 31.4645C4.22917 34.4062 4.91667 37.6562 7.57084 38.9249C8.47624 39.3602 9.46832 39.5853 10.4729 39.5833C11.6021 39.6018 12.7114 39.2849 13.6604 38.6728C14.5146 38.1145 15.2646 37.3895 16.0146 36.6645C16.9396 35.7687 17.8646 34.8728 18.9813 34.2937C20.1977 33.6623 21.5482 33.3329 22.9188 33.3333H27.0833C28.4542 33.3333 29.8042 33.6624 31.0208 34.2916C32.1375 34.8728 33.0625 35.7687 33.9896 36.6645C34.7396 37.3895 35.4896 38.1145 36.3396 38.6728C37.1521 39.2062 38.2042 39.5833 39.5292 39.5833C40.5338 39.5853 41.5259 39.3602 42.4313 38.9249C45.0854 37.6562 45.7729 34.4041 45.8229 31.4645C46.0708 16.8645 42.6563 10.4291 37.6917 8.66867C36.8958 8.38533 36.0417 8.33325 35.2021 8.33325H33.9271C32.0985 8.33356 30.3151 8.90134 28.8229 9.95825L27.7771 10.6958C26.9648 11.2697 25.9946 11.5779 25 11.5779C24.0054 11.5779 23.0352 11.2697 22.2229 10.6958ZM34.8958 16.6666C35.3102 16.6666 35.7077 16.8312 36.0007 17.1242C36.2937 17.4173 36.4583 17.8147 36.4583 18.2291C36.4583 18.6435 36.2937 19.0409 36.0007 19.3339C35.7077 19.627 35.3102 19.7916 34.8958 19.7916C34.4814 19.7916 34.084 19.627 33.791 19.3339C33.498 19.0409 33.3333 18.6435 33.3333 18.2291C33.3333 17.8147 33.498 17.4173 33.791 17.1242C34.084 16.8312 34.4814 16.6666 34.8958 16.6666ZM15.625 17.1874C16.0394 17.1874 16.4368 17.352 16.7299 17.6451C17.0229 17.9381 17.1875 18.3355 17.1875 18.7499V20.3124H18.75C19.1644 20.3124 19.5618 20.477 19.8549 20.7701C20.1479 21.0631 20.3125 21.4605 20.3125 21.8749C20.3125 22.2893 20.1479 22.6867 19.8549 22.9798C19.5618 23.2728 19.1644 23.4374 18.75 23.4374H17.1875V24.9999C17.1875 25.4143 17.0229 25.8117 16.7299 26.1048C16.4368 26.3978 16.0394 26.5624 15.625 26.5624C15.2106 26.5624 14.8132 26.3978 14.5202 26.1048C14.2271 25.8117 14.0625 25.4143 14.0625 24.9999V23.4374H12.5C12.0856 23.4374 11.6882 23.2728 11.3952 22.9798C11.1021 22.6867 10.9375 22.2893 10.9375 21.8749C10.9375 21.4605 11.1021 21.0631 11.3952 20.7701C11.6882 20.477 12.0856 20.3124 12.5 20.3124H14.0625V18.7499C14.0625 18.3355 14.2271 17.9381 14.5202 17.6451C14.8132 17.352 15.2106 17.1874 15.625 17.1874ZM39.5833 21.3541C39.5833 21.7685 39.4187 22.1659 39.1257 22.4589C38.8327 22.752 38.4352 22.9166 38.0208 22.9166C37.6064 22.9166 37.209 22.752 36.916 22.4589C36.623 22.1659 36.4583 21.7685 36.4583 21.3541C36.4583 20.9397 36.623 20.5423 36.916 20.2492C37.209 19.9562 37.6064 19.7916 38.0208 19.7916C38.4352 19.7916 38.8327 19.9562 39.1257 20.2492C39.4187 20.5423 39.5833 20.9397 39.5833 21.3541ZM31.7708 22.9166C32.1852 22.9166 32.5827 22.752 32.8757 22.4589C33.1687 22.1659 33.3333 21.7685 33.3333 21.3541C33.3333 20.9397 33.1687 20.5423 32.8757 20.2492C32.5827 19.9562 32.1852 19.7916 31.7708 19.7916C31.3564 19.7916 30.959 19.9562 30.666 20.2492C30.373 20.5423 30.2083 20.9397 30.2083 21.3541C30.2083 21.7685 30.373 22.1659 30.666 22.4589C30.959 22.752 31.3564 22.9166 31.7708 22.9166ZM36.4583 24.4791C36.4583 24.0647 36.2937 23.6673 36.0007 23.3742C35.7077 23.0812 35.3102 22.9166 34.8958 22.9166C34.4814 22.9166 34.084 23.0812 33.791 23.3742C33.498 23.6673 33.3333 24.0647 33.3333 24.4791C33.3333 24.8935 33.498 25.2909 33.791 25.5839C34.084 25.877 34.4814 26.0416 34.8958 26.0416C35.3102 26.0416 35.7077 25.877 36.0007 25.5839C36.2937 25.2909 36.4583 24.8935 36.4583 24.4791Z" fill="#1F3F3E"/>
</svg>
