<svg width="22" height="22" viewBox="0 0 22 22" fill="none" xmlns="http://www.w3.org/2000/svg">
<path d="M11.0001 16.1791C11.1223 16.1791 11.2332 16.1602 11.3328 16.1223C11.4324 16.0844 11.5278 16.027 11.6188 15.95C12.1077 15.5069 12.5737 15.0715 13.0167 14.6437C13.4598 14.2159 13.8457 13.7958 14.1745 13.3833C14.5033 12.9708 14.7667 12.5699 14.9647 12.1806C15.1627 11.7913 15.262 11.4131 15.2626 11.0458C15.2626 10.3736 15.0334 9.81592 14.5751 9.37287C14.1167 8.92981 13.5667 8.70828 12.9251 8.70828C12.5278 8.70828 12.1651 8.78865 11.837 8.94937C11.5088 9.11009 11.2298 9.32001 11.0001 9.57912C10.7709 9.3194 10.4846 9.10948 10.1411 8.94937C9.7977 8.78926 9.44234 8.7089 9.07507 8.70828C8.4334 8.70828 7.8834 8.92981 7.42507 9.37287C6.96673 9.81592 6.73757 10.3736 6.73757 11.0458C6.73757 11.4125 6.83687 11.7907 7.03548 12.1806C7.23409 12.5705 7.49779 12.9714 7.82657 13.3833C8.15534 13.7952 8.54095 14.2153 8.9834 14.6437C9.42584 15.0721 9.89182 15.5075 10.3813 15.95C10.473 16.0263 10.5686 16.0838 10.6682 16.1223C10.7678 16.1608 10.8785 16.1797 11.0001 16.1791ZM5.50007 19.25C4.9959 19.25 4.56445 19.0706 4.20573 18.7119C3.84701 18.3531 3.66734 17.9214 3.66673 17.4166V10.6562L2.75007 11.3666C2.53618 11.5194 2.30701 11.5805 2.06257 11.55C1.81812 11.5194 1.61951 11.3972 1.46673 11.1833C1.31395 10.9694 1.25682 10.7402 1.29532 10.4958C1.33382 10.2513 1.45207 10.0527 1.65007 9.89995L9.87715 3.59787C10.0452 3.47565 10.2249 3.38398 10.4161 3.32287C10.6074 3.26176 10.8021 3.2312 11.0001 3.2312C11.1981 3.2312 11.393 3.26176 11.5849 3.32287C11.7768 3.38398 11.9561 3.47565 12.123 3.59787L20.373 9.89995C20.5716 10.0527 20.6862 10.2513 20.7167 10.4958C20.7473 10.7402 20.6862 10.9694 20.5334 11.1833C20.3806 11.3819 20.182 11.4965 19.9376 11.527C19.6931 11.5576 19.4716 11.4965 19.273 11.3437L18.3334 10.6562V17.4166C18.3334 17.9208 18.154 18.3525 17.7953 18.7119C17.4366 19.0712 17.0048 19.2506 16.5001 19.25H5.50007Z" fill="white"/>
</svg>
