<svg width="33" height="25" viewBox="0 0 33 25" fill="none" xmlns="http://www.w3.org/2000/svg">
<path d="M25.801 17.9408C24.9056 19.3521 23.2934 20.2974 23.2934 20.2974C23.2934 20.2974 21.6812 19.3521 20.7845 17.9408C19.8891 16.5308 20.3194 15.1925 21.3934 14.7092C22.4686 14.2286 23.2934 15.4594 23.2934 15.4594C23.2934 15.4594 24.1182 14.2286 25.1921 14.7092C26.2674 15.1925 26.6978 16.5308 25.801 17.9408ZM30.3486 21.6981C31.8596 20.385 32.6923 18.6989 32.6923 16.9503C32.6923 12.9819 28.4659 9.75438 23.2721 9.75438C18.077 9.75438 13.8505 12.9819 13.8505 16.9503C13.8505 20.9187 18.077 24.1476 23.2721 24.1476C24.7417 24.1476 26.1515 23.894 27.4612 23.3962L30.6844 24.9442C30.763 24.9814 30.8469 25 30.9295 25C31.0734 25 31.216 24.9456 31.3239 24.842C31.4945 24.6774 31.5451 24.4251 31.4505 24.2087L30.3486 21.6981ZM8.03318 9.7119C6.90595 7.93814 7.44691 6.25333 8.79932 5.64658C10.1517 5.04117 11.1897 6.59055 11.1897 6.59055C11.1897 6.59055 12.2263 5.04117 13.5787 5.64658C14.9325 6.25333 15.4721 7.93814 14.3449 9.7119C13.2176 11.487 11.1897 12.6779 11.1897 12.6779C11.1897 12.6779 9.16041 11.487 8.03318 9.7119ZM22.3127 8.52762C22.3127 8.5263 22.3127 8.52364 22.3127 8.52231C22.3127 3.82369 17.3068 0 11.1564 0C5.00458 0 0 3.82369 0 8.52231C0 10.5921 0.98599 12.589 2.77543 14.145L1.35774 17.3752C1.26181 17.5916 1.31243 17.8452 1.48298 18.0085C1.59091 18.1134 1.73349 18.1665 1.87739 18.1665C1.96133 18.1665 2.04527 18.1479 2.12389 18.1121L6.1931 16.1551C7.7467 16.7459 9.41623 17.0459 11.1564 17.0459C11.64 17.0459 12.117 17.0194 12.5861 16.9729C12.5861 16.9663 12.5847 16.9583 12.5847 16.9503C12.5847 12.5425 16.8671 8.91397 22.3127 8.52762Z" fill="currentColor"/>
</svg>
