<svg width="22" height="22" viewBox="0 0 22 22" fill="none" xmlns="http://www.w3.org/2000/svg">
<path d="M21.0834 6.41645C19.4676 6.32755 17.8646 6.74753 16.5 7.61729C16.17 7.24145 15.8309 6.86562 15.4734 6.50812L15.2075 6.26062L15.3359 6.15062C15.7842 5.76581 16.1036 5.25276 16.2511 4.68069C16.3987 4.10862 16.3672 3.50506 16.1609 2.95145C15.8629 2.32645 15.3898 1.80143 14.7991 1.44018C14.2084 1.07893 13.5255 0.896984 12.8334 0.916453V2.74979C13.1595 2.74525 13.481 2.8278 13.7646 2.98894C14.0482 3.15007 14.2837 3.38396 14.4467 3.66645C14.6025 4.03312 14.4467 4.43645 14.0159 4.86729L13.805 5.05979C12.8489 4.26307 11.7992 3.58586 10.6792 3.04312C8.36005 1.99812 7.16838 2.48395 6.58172 3.04312C6.40295 3.22232 6.25986 3.43385 6.16005 3.66645L5.99505 4.15229L4.67505 8.13062C5.72005 10.734 8.25005 15.3631 13.75 17.3615L18.3334 15.8398C18.4879 15.7822 18.6241 15.6841 18.7275 15.5556L18.92 15.3906C20.2309 14.0706 19.3875 11.5315 17.6275 9.06562C18.6726 8.45572 19.8759 8.17165 21.0834 8.24979V6.41645ZM17.6092 14.089H17.5542C16.9217 14.4281 14.3 13.5665 11.33 10.5965C11.0184 10.2848 10.725 9.98229 10.4592 9.67979C10.3675 9.57895 10.285 9.46895 10.1934 9.35895L9.70755 8.77229L9.45088 8.41479C9.32255 8.24062 9.19422 8.06645 9.08422 7.90145C8.97422 7.73645 8.93755 7.66312 8.86422 7.54395C8.79088 7.42479 8.66255 7.23229 8.58005 7.07645C8.49755 6.92062 8.46088 6.85645 8.40588 6.73729C8.35088 6.61812 8.25005 6.48062 8.19505 6.35229C8.14005 6.22395 8.11255 6.14145 8.06672 6.04062C8.02088 5.93979 7.96588 5.79312 7.92922 5.67395C7.89255 5.55479 7.88338 5.49979 7.86505 5.40812C7.84672 5.31645 7.81005 5.18812 7.79172 5.09645C7.78731 5.02319 7.78731 4.94972 7.79172 4.87645C7.78271 4.79726 7.78271 4.71731 7.79172 4.63812L7.89255 4.35395C8.04838 4.18895 8.72672 4.14312 9.93672 4.69312C10.7454 5.08159 11.5105 5.5548 12.2192 6.10479C11.8328 6.27531 11.4209 6.38063 11 6.41645V8.24979C11.9739 8.19453 12.9188 7.89846 13.75 7.38812L14.1992 7.80979C14.6025 8.20395 14.96 8.59812 15.29 8.97395C14.7373 9.91641 14.5178 11.0174 14.6667 12.0998L16.5 11.7423C16.4381 11.3967 16.4381 11.0429 16.5 10.6973C17.6825 12.5031 17.9025 13.8048 17.6092 14.089Z" fill="white"/>
<path d="M4.03333 10.0835L1.98917 16.2252C1.84163 16.6761 1.80289 17.1555 1.87612 17.6243C1.94935 18.093 2.13247 18.5378 2.41051 18.9222C2.68855 19.3066 3.05361 19.6198 3.47587 19.8361C3.89812 20.0524 4.36557 20.1658 4.84 20.1668C5.15188 20.1638 5.4613 20.1112 5.75667 20.011L11.7333 18.0218C8.36012 16.2991 5.65248 13.5076 4.03333 10.0835Z" fill="white"/>
</svg>
