<svg width="32" height="32" viewBox="0 0 32 32" fill="none" xmlns="http://www.w3.org/2000/svg">
<path d="M9.34931 22.0773L11.9746 17.5119C11.8209 17.5982 11.6413 17.6582 11.436 17.6919C11.2306 17.7257 11.0258 17.7431 10.8213 17.7439C9.57687 17.7439 8.53064 17.3115 7.68264 16.4466C6.83464 15.5808 6.41064 14.5431 6.41064 13.3333C6.41064 12.0888 6.83464 11.0426 7.68264 10.1946C8.53064 9.34661 9.57687 8.92261 10.8213 8.92261C12.0311 8.92261 13.0684 9.34661 13.9333 10.1946C14.7982 11.0426 15.2306 12.0888 15.2306 13.3333C15.2306 13.7591 15.1782 14.1586 15.0733 14.5319C14.9684 14.9053 14.8191 15.2577 14.6253 15.5893L10.4946 22.7439C10.4351 22.8417 10.3564 22.9217 10.2586 22.9839C10.1609 23.0462 10.0498 23.0773 9.92531 23.0773C9.67109 23.0773 9.47998 22.9662 9.35198 22.7439C9.22398 22.5217 9.22309 22.2995 9.34931 22.0773ZM21.0413 22.0773L23.6666 17.5133C23.5129 17.5986 23.3333 17.6582 23.128 17.6919C22.9226 17.7257 22.7178 17.7431 22.5133 17.7439C21.2689 17.7439 20.2226 17.3115 19.3746 16.4466C18.5266 15.5817 18.1026 14.5439 18.1026 13.3333C18.1026 12.0711 18.5266 11.0208 19.3746 10.1826C20.2226 9.34439 21.2689 8.92439 22.5133 8.92261C23.7231 8.92261 24.7604 9.34661 25.6253 10.1946C26.4902 11.0426 26.9226 12.0888 26.9226 13.3333C26.9226 13.7591 26.8702 14.1586 26.7653 14.5319C26.6604 14.9053 26.5115 15.2577 26.3186 15.5893L22.1866 22.7439C22.1271 22.8417 22.0484 22.9217 21.9506 22.9839C21.8529 23.0462 21.7418 23.0773 21.6173 23.0773C21.3631 23.0773 21.172 22.9662 21.044 22.7439C20.916 22.5217 20.9151 22.2995 21.0413 22.0773Z" fill="currentColor"/>
</svg>
