<svg width="35" height="35" viewBox="0 0 35 35" fill="none" xmlns="http://www.w3.org/2000/svg">
<path d="M13.058 1.73267L11.4926 4.08081H13.5922L15.1576 1.73267H13.058ZM16.6364 1.73267L15.0711 4.08081H19.9287L18.3635 1.73267H16.6364ZM19.8425 1.73267L21.4079 4.08081H23.5075L21.9421 1.73267H19.8425ZM11.8284 5.31128L15.2542 8.73711L13.5413 5.31128H11.8284ZM14.917 5.31128L17.5 10.4771L20.083 5.31121L14.917 5.31128ZM21.4587 5.31128L19.7457 8.73711L23.1716 5.31128H21.4587ZM12.2688 7.49181C7.46231 9.53616 4.08057 14.307 4.08057 19.848C4.08057 27.2435 10.1045 33.2674 17.5 33.2674C24.8954 33.2674 30.9194 27.2436 30.9194 19.848C30.9194 14.307 27.5377 9.53616 22.7312 7.49181L20.6451 9.57793C25.0472 10.9172 28.2355 14.9983 28.2355 19.8481C28.2355 25.793 23.4449 30.5836 17.5 30.5836C11.555 30.5836 6.76449 25.793 6.76449 19.8481C6.76449 14.9983 9.95277 10.9172 14.3549 9.578L12.2688 7.49194V7.49181Z" fill="currentColor"/>
</svg>
