<svg width="35" height="30" viewBox="0 0 35 30" fill="none" xmlns="http://www.w3.org/2000/svg">
<path d="M23.2682 27.4892C21.6724 27.4892 20.1819 27.0328 18.9181 26.2443C20.5382 24.3607 21.5206 21.9142 21.5206 19.24C21.5206 16.5669 20.5382 14.1193 18.9181 12.2357C20.1819 11.4473 21.6724 10.9908 23.2682 10.9908C27.8176 10.9908 31.5174 14.6917 31.5174 19.24C31.5174 23.7883 27.8176 27.4892 23.2682 27.4892ZM2.5108 19.24C2.5108 14.6917 6.21134 10.9908 10.76 10.9908C12.356 10.9908 13.8466 11.4473 15.1105 12.2357C13.4908 14.1193 12.5083 16.5669 12.5083 19.24C12.5083 21.9142 13.4908 24.3607 15.1105 26.2443C13.8466 27.0328 12.356 27.4892 10.76 27.4892C6.21134 27.4892 2.5108 23.7883 2.5108 19.24ZM17.0143 24.6105C15.7723 23.1664 15.0192 21.2902 15.0192 19.24C15.0192 17.1898 15.7723 15.3147 17.0143 13.8695C18.2562 15.3147 19.0095 17.1898 19.0095 19.24C19.0095 21.2902 18.2562 23.1664 17.0143 24.6105ZM23.2682 8.48004C20.9377 8.48004 18.7784 9.22738 17.0143 10.4923C15.2501 9.22738 13.0914 8.48004 10.76 8.48004C4.82692 8.48004 0 13.3066 0 19.24C0 25.1734 4.82692 30 10.76 30C13.0914 30 15.2501 29.2527 17.0143 27.9878C18.7784 29.2527 20.9377 30 23.2682 30C29.2016 30 34.0282 25.1734 34.0282 19.24C34.0282 13.3066 29.2016 8.48004 23.2682 8.48004Z" fill="currentColor"/>
<path d="M13.6313 5.21984C14.3375 5.93872 15.0533 6.64812 15.7681 7.35856C15.9458 7.53459 16.122 7.71378 16.2993 7.89087C17.2811 6.90847 18.2623 5.92607 19.2456 4.94578C19.9446 4.24904 20.6266 3.48484 20.6835 2.50982C20.6951 2.31377 20.6814 2.10928 20.6382 1.8953C20.419 0.821201 19.2885 7.96318e-05 18.1899 7.96318e-05C17.454 7.96318e-05 16.7942 0.31841 16.335 0.822257C15.8757 0.31841 15.2159 7.96318e-05 14.4799 7.96318e-05C13.0934 7.96318e-05 11.969 1.12371 11.969 2.51087C11.969 3.69038 12.872 4.44721 13.6313 5.21984Z" fill="currentColor"/>
</svg>
