<svg width="60" height="60" viewBox="0 0 60 60" fill="none" xmlns="http://www.w3.org/2000/svg">
<path d="M31.425 21.45C30.9025 21.45 30.4987 21.2125 30.2137 20.7375C29.9287 20.2625 29.9287 19.7875 30.2137 19.3125L38.55 4.84875C38.93 4.23125 39.405 3.8636 39.975 3.7458C40.545 3.628 41.1625 3.7344 41.8275 4.065C45.105 5.5375 48.0025 7.5914 50.52 10.2267C53.0375 12.862 54.985 15.8431 56.3625 19.17C56.6 19.7875 56.5639 20.3223 56.2542 20.7745C55.9445 21.2267 55.4581 21.4519 54.795 21.45H31.425ZM21.2362 24.9412L12.6862 10.1213C12.3063 9.50375 12.2112 8.88625 12.4012 8.26875C12.5912 7.65125 12.9712 7.1525 13.5412 6.7725C15.8212 5.1575 18.3511 3.875 21.1308 2.925C23.9105 1.975 26.8669 1.5 30 1.5C30.7125 1.5 31.4962 1.5361 32.3512 1.6083C33.2062 1.6805 33.9187 1.76315 34.4887 1.85625C35.1537 1.95125 35.5936 2.23625 35.8083 2.71125C36.023 3.18625 35.9632 3.70875 35.6287 4.27875L23.73 24.9412C23.445 25.4163 23.0299 25.6537 22.4845 25.6537C21.9392 25.6537 21.5231 25.4163 21.2362 24.9412ZM3.9225 35.7C3.4 35.7 2.925 35.5223 2.4975 35.167C2.07 34.8117 1.80875 34.3719 1.71375 33.8475C1.61875 33.3231 1.55985 32.7531 1.53705 32.1375C1.51425 31.5219 1.5019 30.8094 1.5 30C1.5 27.0075 1.98735 24.0273 2.96205 21.0595C3.93675 18.0917 5.4444 15.2769 7.485 12.615C8.0075 11.95 8.6136 11.6175 9.3033 11.6175C9.993 11.6175 10.5269 11.9738 10.905 12.6862L22.875 33.5625C23.16 34.0375 23.1486 34.5125 22.8408 34.9875C22.533 35.4625 22.1169 35.7 21.5925 35.7H3.9225ZM18.1725 55.935C15.0375 54.415 12.1637 52.3487 9.55125 49.7362C6.93875 47.1237 4.9675 44.155 3.6375 40.83C3.4 40.2125 3.4475 39.6786 3.78 39.2283C4.1125 38.778 4.61125 38.5519 5.27625 38.55H28.5037C29.0263 38.55 29.43 38.7875 29.715 39.2625C30 39.7375 30 40.2125 29.715 40.6875L21.5212 55.0087C21.1412 55.6262 20.6662 56.03 20.0962 56.22C19.5262 56.41 18.885 56.315 18.1725 55.935ZM30 58.5C29.335 58.5 28.5864 58.4639 27.7542 58.3917C26.922 58.3195 26.1981 58.2368 25.5825 58.1437C24.9175 58.0487 24.4662 57.7638 24.2288 57.2887C23.9913 56.8138 24.0387 56.2912 24.3712 55.7212L36.1275 35.2012C36.4125 34.7262 36.8875 34.4887 37.5525 34.4887C38.2175 34.4887 38.6925 34.7262 38.9775 35.2012L47.385 49.8075C47.7175 50.33 47.8248 50.9 47.707 51.5175C47.5892 52.135 47.1969 52.705 46.53 53.2275C44.345 54.8425 41.7923 56.125 38.872 57.075C35.9517 58.025 32.9944 58.5 30 58.5ZM49.3087 47.4562L37.1962 26.4375C36.9112 25.9625 36.9236 25.4875 37.2333 25.0125C37.543 24.5375 37.9581 24.3 38.4787 24.3H56.0775C56.6 24.3 57.075 24.4786 57.5025 24.8358C57.93 25.193 58.1912 25.6319 58.2862 26.1525C58.3812 26.6731 58.4401 27.2431 58.4629 27.8625C58.4857 28.4819 58.4981 29.1944 58.5 30C58.5 32.9925 58.0126 35.9973 57.0379 39.0145C56.0632 42.0317 54.5556 44.8456 52.515 47.4562C52.135 47.9787 51.5887 48.2523 50.8763 48.2771C50.1637 48.3018 49.6412 48.0281 49.3087 47.4562Z" fill="white" />
</svg>
