<svg width="50" height="50" viewBox="0 0 50 50" fill="none" xmlns="http://www.w3.org/2000/svg">
<path d="M24.9998 45.8334C22.1179 45.8334 19.4096 45.2862 16.8748 44.1917C14.3401 43.0973 12.1353 41.6133 10.2603 39.7397C8.38526 37.8661 6.90123 35.6612 5.80817 33.1251C4.71512 30.589 4.1679 27.8806 4.16651 25.0001C4.16512 22.1195 4.71234 19.4112 5.80817 16.8751C6.90401 14.339 8.38803 12.1341 10.2603 10.2605C12.1325 8.38689 14.3373 6.90286 16.8748 5.80842C19.4123 4.71397 22.1207 4.16675 24.9998 4.16675C30.0693 4.16675 34.5054 5.75564 38.3082 8.93342C42.111 12.1112 44.4804 16.0952 45.4165 20.8855H41.1457C40.486 18.3508 39.2964 16.0855 37.5769 14.0897C35.8575 12.0938 33.7484 10.5917 31.2498 9.58342V10.4167C31.2498 11.5626 30.8422 12.5438 30.0269 13.3605C29.2116 14.1772 28.2304 14.5848 27.0832 14.5834H22.9165V18.7501C22.9165 19.3404 22.7165 19.8355 22.3165 20.2355C21.9165 20.6355 21.4221 20.8348 20.8332 20.8334H16.6665V25.0001H20.8332V31.2501H18.7498L8.74984 21.2501C8.64567 21.8751 8.55053 22.5001 8.46442 23.1251C8.37831 23.7501 8.33456 24.3751 8.33317 25.0001C8.33317 29.5487 9.9304 33.4549 13.1248 36.7188C16.3193 39.9827 20.2776 41.632 24.9998 41.6668V45.8334ZM43.9582 44.7918L37.2915 38.1251C36.5623 38.5417 35.7811 38.889 34.9478 39.1667C34.1144 39.4445 33.229 39.5834 32.2915 39.5834C29.6873 39.5834 27.4741 38.6723 25.6519 36.8501C23.8297 35.0279 22.9179 32.814 22.9165 30.2084C22.9151 27.6029 23.8269 25.3897 25.6519 23.5688C27.4769 21.748 29.6901 20.8362 32.2915 20.8334C34.8929 20.8306 37.1068 21.7424 38.9332 23.5688C40.7596 25.3952 41.6707 27.6084 41.6665 30.2084C41.6665 31.1459 41.5276 32.0313 41.2498 32.8647C40.9721 33.698 40.6248 34.4792 40.2082 35.2084L46.8748 41.8751L43.9582 44.7918ZM32.2915 35.4167C33.7498 35.4167 34.9825 34.9133 35.9894 33.9063C36.9964 32.8994 37.4998 31.6667 37.4998 30.2084C37.4998 28.7501 36.9964 27.5174 35.9894 26.5105C34.9825 25.5036 33.7498 25.0001 32.2915 25.0001C30.8332 25.0001 29.6005 25.5036 28.5936 26.5105C27.5866 27.5174 27.0832 28.7501 27.0832 30.2084C27.0832 31.6667 27.5866 32.8994 28.5936 33.9063C29.6005 34.9133 30.8332 35.4167 32.2915 35.4167Z" fill="#1F3F3E"/>
</svg>
