<svg width="56" height="31" viewBox="0 0 56 31" fill="none" xmlns="http://www.w3.org/2000/svg">
<path d="M18.001 30.384C17.9165 30.384 17.8177 30.3558 17.7051 30.2992C17.4093 30.1298 17.2544 29.8687 17.2402 29.516C17.2544 28.6831 17.3951 27.8714 17.6629 27.0809C17.8881 26.2765 18.1278 25.4717 18.381 24.6673L18.6769 23.7143C18.6769 23.7 18.6734 23.6754 18.6665 23.6403C18.6592 23.6049 18.5924 23.5802 18.4656 23.566C16.5924 23.3261 14.7754 22.8675 13.0148 22.1898C12.5499 22.0485 12.2821 21.978 12.2118 21.978C12.1134 21.978 12.0146 22.0415 11.9159 22.1686C11.8175 22.2957 11.7257 22.4158 11.6412 22.5286C10.5426 24.0673 9.33152 25.5071 8.00745 26.8479C7.40154 27.469 6.70452 27.9773 5.91569 28.3724C5.36625 28.5984 4.85941 28.7112 4.3945 28.7112C3.33823 28.7112 2.486 28.1183 1.83817 26.9326C1.52812 26.2553 1.37326 25.5564 1.37326 24.8363C1.37326 24.3142 1.44359 23.9191 1.58458 23.6507C1.65491 23.5379 1.74637 23.4813 1.85931 23.4813C2.09869 23.4813 2.21821 23.5802 2.21821 23.7778V23.8625C2.16209 24.1732 2.13368 24.4767 2.13368 24.7728C2.13368 25.4505 2.26775 26.107 2.5352 26.742C2.88752 27.5607 3.26755 28.0408 3.676 28.1818C3.817 28.2241 3.97185 28.2453 4.14091 28.2453C4.47903 28.2453 4.87327 28.1537 5.32398 27.9704C6.28187 27.5607 7.11296 26.968 7.81726 26.1917C9.12712 24.8648 10.3244 23.4532 11.4091 21.9568C11.4091 21.9287 11.4195 21.904 11.4406 21.8829C11.4617 21.8617 11.4829 21.837 11.504 21.8086C11.5251 21.7805 11.5359 21.7593 11.5359 21.745C11.5359 21.7027 11.4794 21.6534 11.3668 21.5968C10.8877 21.4135 10.4159 21.2159 9.95128 21.0042C9.06372 20.5948 8.1481 20.2417 7.20442 19.9452C6.444 19.7338 5.63404 19.6279 4.77488 19.6279C3.47888 19.6279 2.26047 19.9595 1.11967 20.6229L0.84495 20.7924C0.535239 20.9618 0.351976 21.0465 0.295507 21.0465C0.211324 21.0465 0.140652 21.0111 0.0845296 20.9406C0.0280611 20.8701 0 20.8135 0 20.7712C0 20.6722 0.0280611 20.5948 0.0845296 20.5382C0.225181 20.3688 0.387312 20.2206 0.570229 20.0935C1.75364 19.2748 3.02817 18.8655 4.3945 18.8655C4.77488 18.8655 5.16913 18.9009 5.57757 18.9714C6.78905 19.1832 7.94405 19.5644 9.04259 20.1147L9.40184 20.2629L9.42297 20.2841C10.0989 20.5664 10.7682 20.8628 11.4302 21.1736C11.5428 21.2298 11.6412 21.2583 11.7257 21.2583C11.7541 21.2583 11.7999 21.251 11.8632 21.2371C11.9266 21.2229 12.0077 21.1382 12.1061 20.983C13.8667 18.5409 15.5289 16.0353 17.0923 13.4661C19.6982 9.31628 22.5012 5.31431 25.5013 1.46094C25.952 0.867954 26.2901 0.486749 26.5153 0.317324C26.6843 0.10589 26.8815 0 27.107 0C27.2057 0 27.3114 0.0211781 27.424 0.0635343C27.7479 0.232959 27.9097 0.49404 27.9097 0.846776C27.9097 2.24418 26.966 5.26501 25.0786 9.90926C23.5997 13.6498 21.9871 17.934 20.2403 22.7616C20.1842 22.8887 20.1558 22.9803 20.1558 23.0369C20.1558 23.065 20.1665 23.0931 20.1877 23.1213C20.2088 23.1497 20.3179 23.1636 20.5151 23.1636C21.994 23.1355 23.4379 22.8814 24.8462 22.4016L25.2265 22.2957C25.6915 22.1405 25.9873 22.0627 26.1141 22.0627C26.2125 22.0769 26.2828 22.1332 26.3251 22.2321V22.2745C26.3251 22.345 26.2828 22.3804 26.1986 22.3804C26.1844 22.3946 26.1633 22.4016 26.1352 22.4016C24.5295 23.1213 22.8462 23.5236 21.0856 23.6084L20.8954 23.6295C20.5573 23.6295 20.3037 23.6438 20.1347 23.6719C20.0221 23.7 19.9376 23.7636 19.8811 23.8625C19.825 23.9614 19.7685 24.1059 19.7124 24.2965C19.6559 24.4871 19.5994 24.6673 19.5433 24.8363C19.0784 26.0928 18.698 27.3774 18.4022 28.6901C18.3038 29.0713 18.2542 29.4452 18.2542 29.8122V29.9604C18.2542 30.2427 18.1697 30.384 18.001 30.384ZM18.6769 23.0581C18.8459 23.0581 18.9585 22.9803 19.015 22.8251C20.1981 19.522 21.4657 16.254 22.8181 13.0217L24.1491 9.76102C25.1774 7.34706 26.093 4.8911 26.8957 2.39243C27.0928 1.79979 27.1915 1.1575 27.1915 0.465571C26.755 0.790533 26.4027 1.14327 26.1352 1.52448C23.5574 4.74285 21.156 8.08829 18.9305 11.5608L17.4304 13.9321C15.9515 16.3318 14.4019 18.6822 12.7823 20.983C12.6133 21.2229 12.5287 21.3854 12.5287 21.4701C12.5287 21.484 12.5322 21.5159 12.5391 21.5652C12.5464 21.6145 12.712 21.6815 13.0359 21.7662C14.8246 22.4439 16.6769 22.8744 18.5924 23.0581H18.6769Z" fill="#505050"/>
<path d="M30.2124 30.384C29.452 30.384 28.8322 30.2072 28.3531 29.8545C28.0576 29.6146 27.9097 29.3674 27.9097 29.1133C27.9097 28.8876 28.0153 28.6547 28.2267 28.4147C28.7054 27.9346 29.2829 27.6385 29.9588 27.5253C30.6351 27.4124 31.3251 27.3558 32.0294 27.3558C32.6915 27.3558 33.3535 27.4124 34.0155 27.5253L34.2057 27.5464C34.4171 27.5464 34.6073 27.4617 34.776 27.2923C36.3959 25.7678 37.8187 24.1941 39.044 22.5706C41.2976 19.7335 43.2979 16.7338 45.0442 13.572C46.8755 10.2408 49.0376 7.14917 51.5305 4.29811C51.8686 3.9308 52.2279 3.585 52.6083 3.26039C52.9602 2.99236 53.3264 2.66046 53.7068 2.26536C53.8897 2.05358 54.073 1.94769 54.2562 1.94769C54.6363 1.94769 54.8265 2.04664 54.8265 2.24419C54.8265 2.25807 54.8123 2.28307 54.7842 2.31814C54.7561 2.35355 54.7208 2.38896 54.6785 2.42403C54.6363 2.45944 54.6013 2.49103 54.5729 2.5195C53.5731 3.81796 52.7136 5.20842 51.9954 6.69054C51.9109 6.83185 51.8367 6.96239 51.7737 7.08216C51.7103 7.20229 51.6538 7.30471 51.6046 7.38942C51.5551 7.47413 51.4955 7.51649 51.4248 7.51649C51.3826 7.51649 51.3334 7.50573 51.2769 7.48455C51.2208 7.46337 51.1924 7.43872 51.1924 7.4106C51.1924 7.29742 51.2066 7.24117 51.2346 7.24117C51.3899 6.67631 51.6008 6.13991 51.8686 5.63199L52.1222 5.10253C52.1925 4.9897 52.2279 4.87687 52.2279 4.76368L51.615 5.50492C49.1644 8.4268 46.995 11.6806 45.1076 15.2659C43.2625 18.6961 41.0935 21.9002 38.6002 24.8787C37.7269 25.9234 36.7271 26.9042 35.6001 27.8218L36.8466 28.1606C38.241 28.5418 39.6638 28.8098 41.1146 28.965C41.5089 29.0074 41.8962 29.0286 42.2766 29.0286C43.4877 29.0286 44.9386 28.8029 46.6288 28.3512C48.784 27.8287 50.7278 26.8691 52.4603 25.4717L52.9249 25.0905C53.6576 24.5399 54.3546 23.9399 55.0167 23.2907C55.2844 23.0223 55.4816 22.8883 55.6084 22.8883C55.6787 22.8883 55.7352 22.9095 55.7774 22.9518C55.8197 22.9942 55.8408 23.0223 55.8408 23.0366C55.8408 23.0647 55.8055 23.1143 55.7352 23.1848C55.7067 23.199 55.6929 23.2129 55.6929 23.2272C55.3267 23.5799 54.9813 23.9469 54.6574 24.3281C54.3757 24.6527 54.0872 24.9704 53.7913 25.2811C51.9178 27.1725 49.6785 28.4005 47.0726 28.965C45.3259 29.3744 43.7978 29.5792 42.4879 29.5792C41.7555 29.5792 40.9383 29.5087 40.0369 29.3674C38.8538 29.1841 37.3115 28.8241 35.4099 28.2877L35.2409 28.2665C35.1002 28.2665 34.9734 28.3089 34.8605 28.3936C33.8184 29.2403 32.6561 29.8476 31.3747 30.2145C30.9943 30.3274 30.607 30.384 30.2124 30.384ZM29.9166 29.8545C30.0718 29.8545 30.2266 29.8333 30.3815 29.791C31.6352 29.4521 32.8041 28.8522 33.8887 27.9912C33.8323 27.9912 33.79 27.9842 33.762 27.97C33.5226 27.8853 33.0438 27.8429 32.3253 27.8429C31.6913 27.8429 31.0646 27.8995 30.4449 28.0124C29.9238 28.0971 29.48 28.33 29.1139 28.7112C28.959 28.8946 28.8814 29.057 28.8814 29.198C28.8814 29.4098 29.0224 29.5934 29.3041 29.7486C29.5154 29.8191 29.7194 29.8545 29.9166 29.8545Z" fill="#A0A0A0"/>
<path d="M32.0133 18.49C31.8296 18.1716 31.8629 17.8366 32.1106 17.4849C32.2648 17.2679 32.4636 17.0898 32.7079 16.9489C33.6488 16.4052 35.0518 16.0944 36.9174 16.0177C38.9315 15.9004 41.0725 15.8906 43.3361 15.9885C44.9522 16.0569 46.7571 16.3093 48.7477 16.7475C48.8395 16.7652 48.9313 16.7905 49.021 16.82C49.109 16.8489 49.1676 16.8884 49.1946 16.9353C49.2105 16.9627 49.2164 17.0075 49.2105 17.0679C49.2064 17.1308 49.1735 17.1954 49.1146 17.2658C49.0796 17.3144 49.0408 17.3498 49.0013 17.3735C48.6289 17.5884 47.2178 17.6415 44.7668 17.5339C42.5088 17.4297 40.1922 17.1485 37.817 16.6888L37.8112 16.6791C37.5849 16.6926 37.2998 16.7044 36.9544 16.7142C36.0295 16.7534 35.1104 16.8648 34.1989 17.0488C33.6543 17.1367 33.1412 17.3165 32.6569 17.5884C32.4816 17.6901 32.3275 17.8154 32.1965 17.964C32.1321 18.0543 32.1009 18.1185 32.1026 18.1518C32.1051 18.1869 32.1165 18.2223 32.1362 18.2556L32.2159 18.3726C32.3957 18.5567 32.5987 18.707 32.8249 18.8188C33.4045 19.0885 34.0056 19.3017 34.6264 19.4562L34.9579 19.5638C35.6272 19.7537 36.283 19.9627 36.9253 20.186C37.4931 20.3912 38.028 20.6592 38.5272 20.9935C38.5879 21.023 38.6367 21.0661 38.6717 21.1282C38.7032 21.1813 38.7185 21.2497 38.7205 21.3299C38.2563 20.9935 37.7779 20.7411 37.2842 20.5752L36.4999 20.338C35.3484 20.0294 34.2751 19.6926 33.2815 19.327C32.9812 19.2295 32.6943 19.0924 32.4231 18.9167C32.2471 18.8011 32.1106 18.6584 32.0133 18.49ZM38.8747 16.6458C40.7874 16.9763 42.8542 17.1936 45.0769 17.2992C46.6736 17.3599 47.7895 17.3599 48.4297 17.2967L47.0852 17.0995C46.121 16.943 45.1552 16.8294 44.1852 16.7593C42.2864 16.6381 40.5161 16.6006 38.8747 16.6458Z" fill="#A0A0A0"/>
</svg>
