<svg width="1508" height="1330" viewBox="0 0 1508 1330" fill="none" xmlns="http://www.w3.org/2000/svg">
<mask id="mask0_155_113" style="mask-type:alpha" maskUnits="userSpaceOnUse" x="0" y="0" width="1508" height="1330">
<g clip-path="url(#clip0_155_113)">
<path d="M1056.95 1116.5C1059.22 1126.67 1057.92 1136.55 1060.79 1146.02C1062.21 1150.69 1063.92 1152.48 1069.32 1152.2C1082.89 1151.51 1090.52 1156.74 1095.45 1168.99C1099.16 1178.21 1103.59 1187.02 1097.68 1197.46C1095.04 1202.11 1095.21 1208.96 1100.15 1213.35C1107.29 1219.72 1104.11 1225.94 1100.71 1232.29C1097.8 1237.72 1092.75 1241.54 1086.82 1241.19C1079.86 1240.79 1076.3 1234.82 1073.53 1229.05C1072.73 1227.39 1072.24 1225.6 1071.61 1223.85C1069.35 1224.03 1069.16 1225.79 1068.7 1227.26C1066.01 1235.8 1058.64 1238.96 1050.98 1234.04C1045.88 1230.77 1040.77 1231.02 1037.06 1234.22C1025.68 1244.06 1011.07 1248.76 999.087 1257.6C995.441 1260.29 992.635 1262.8 993.307 1267.39C995.396 1281.64 987.974 1290.28 975.651 1296.23C971.42 1298.27 967.562 1301.25 963.146 1302.67C955.447 1305.16 951.57 1310.27 949.081 1317.38C944.28 1331.09 938.715 1333.27 925.048 1327.34C912.248 1321.79 900.629 1314.55 890.297 1305.24C882.757 1298.45 874.883 1291.93 866.618 1286C860.561 1281.65 858.274 1276.48 858.513 1269.41C858.815 1260.51 858.336 1251.59 858.434 1242.68C858.519 1235 856.425 1228.53 850.04 1223.37C842.558 1217.33 835.62 1210.65 828.274 1204.45C822.541 1199.6 818.708 1193.73 818.373 1186.38C817.778 1173.36 807.736 1165.41 801.227 1155.63C798.863 1152.08 793.839 1152.21 789.607 1152.49C771.9 1153.65 764.076 1137.88 767.052 1124.11C769.228 1114.05 766.597 1110.33 756.083 1108.68C750.03 1107.73 744.001 1107 737.831 1107.02C729.4 1107.06 722.063 1105.24 717.886 1096.68C714.883 1090.53 708.129 1088.1 701.794 1088.03C693.463 1087.93 690.39 1083.33 688.69 1076.99C687.456 1072.39 685.525 1068.71 681.776 1065.41C675.42 1059.81 677.223 1050.67 684.677 1046.57C695.114 1040.83 704.887 1034.52 708.323 1022.17C709.307 1018.63 711.95 1015.44 715.193 1013.17C723.229 1007.55 728.472 1012.34 732.716 1018.06C736.477 1017.59 736.688 1015.38 736.643 1013.16C736.469 1004.61 740.142 998.65 748.773 995.967C757.222 993.342 761.576 998.748 765.933 1004.19C766.226 1004.55 766.897 1004.63 767.697 1004.97C774.182 999.676 780.858 994.637 780.636 984.906C780.529 980.199 783.78 977.037 788.348 975.655C784.762 962.86 786.872 959.742 799.436 958.606C806.526 957.965 809.314 952.79 804.661 947.428C794.307 935.499 785.782 921.934 772.256 912.751C766.954 909.152 762.681 904.919 760.95 898.304C759.738 893.672 756.832 890.419 750.374 893.248C744.464 895.838 738.196 895.041 733.927 889.385C731.181 885.745 727.224 884.73 723.136 883.923C717.333 882.78 713.653 884.49 712.253 890.743C710.937 896.636 711.412 903.031 706.264 908.012C698.881 915.159 687.301 916.346 679.564 909.442C672.393 903.044 665.798 896.032 657.005 891.589C653.092 889.611 653.316 885.394 651.317 880.024C649.884 887.604 646.862 891.85 641.302 893.975C632.484 897.342 628.686 904.026 627.887 912.778C627.418 917.941 626.156 922.425 619.349 922.626C616.596 922.71 615.268 925.186 613.628 927.002C605.463 936.033 590.866 935.493 583.551 925.91C576.857 917.141 578.928 909.382 589.232 904.594C590.69 903.917 592.555 903.786 593.236 901.679C586.491 891.478 590.679 879.892 589.417 868.88C589.006 865.294 591.474 860.161 587.388 858.484C582.724 856.567 577.224 858.52 573.648 862.097C568.853 866.895 563.281 867.94 556.94 867.454C552.018 867.079 547.727 868.472 543.594 871.146C534.958 876.732 521.535 871.819 519.698 861.894C517.528 850.178 515.967 838.48 508.065 828.691C505.333 825.306 508.198 821.321 507.37 817.148C501.944 816.267 498.967 819.136 496.337 823.258C488.159 836.081 480.614 836.736 470.407 825.22C466.374 820.67 462.887 819.967 457.598 823.338C449.827 828.291 437.434 823.752 436.53 814.737C435.578 805.22 428.595 803.594 422.163 801.412C415.631 799.196 409.581 796.967 403.552 793.242C396.69 789.002 387.655 789.251 379.346 791.4C366.565 794.704 358.5 792.35 351.235 781.319C346.426 774.017 340.174 770.012 331.692 769.222C326.068 768.698 322.054 765.7 317.955 761.415C314.177 767.421 309.833 771.74 309.411 778.443C308.952 785.753 302.646 788.587 296.678 789.172C290.385 789.788 284.118 786.863 282.987 779.894C281.525 770.888 277.817 762.158 278.902 752.808C279.764 745.352 276.646 739.77 270.714 735.281C266.547 732.128 262.712 728.55 258.463 725.512C254.419 722.623 251.5 719.453 251.747 714.195C251.947 709.977 249.927 706.426 245.691 705.531C238.569 704.025 235.735 698.931 233.67 693.277C228.312 678.606 226.515 664.514 239.986 652.249C247.24 645.642 246.948 642.584 238.953 636.816C231.29 631.286 226.655 623.089 219.767 617.005C204.843 629.582 199.596 627.758 186.987 605.812C183.616 609.738 185.32 617.032 177.605 617.782C168.888 618.63 163.146 615.923 160.102 607.669C159.095 604.939 158.172 602.473 155.1 601.816C143.153 599.258 131.631 595.478 120.394 590.83C118.083 589.875 115.948 590.333 114.327 592.155C110.133 596.871 105.885 601.263 99.3651 603.281C96.2512 604.245 96.8399 607.242 99.1006 609.118C100.292 610.107 102.091 610.436 103.643 610.991C120.554 617.059 126.721 632.139 118.94 647.885C117.111 651.585 114.162 653.597 110.662 655.457C101.556 660.292 98.8188 669.604 104.98 677.79C110.912 685.662 110.855 694.252 106.596 701.388C102.628 708.032 94.4191 711.493 85.8725 711.549C76.1935 711.611 66.1666 712.281 59.0632 703.406C57.3197 704.357 55.2416 706.402 54.0669 705.996C39.733 701.029 24.5591 711.213 10.3627 703.498C6.42206 701.354 2.98806 699.464 3.75528 694.493C4.17461 691.77 2.59121 690.028 1.3663 687.894C-3.7318 679.006 0.1718 672.429 10.5095 672.126C28.7233 671.592 41.6974 660.873 44.1485 643.468C45.1552 636.306 48.4635 630.303 53.2931 625.677C64.2089 615.219 69.1377 602.467 70.934 588.248C71.8084 581.322 75.2676 576.486 80.8009 572.148C88.8356 565.851 91.1478 556.337 93.0924 547.103C95.2565 536.826 96.5383 526.604 102.611 517.264C107.098 510.364 105.033 501.466 106.162 493.501C108.344 478.091 115.361 463.369 113.276 447.344C113.154 446.411 113.708 444.84 114.449 444.442C128.266 437.04 125.283 421.327 132.224 410.295C140.592 396.988 134.176 377.325 122.979 365.789C113.085 355.593 104.351 344.337 104.836 328.943C105.051 322.16 108.08 318.959 115.01 319.079C117.238 319.116 119.5 318.813 121.691 319.084C129.343 320.034 132.042 317.045 131.709 309.518C131.246 299.031 134.807 295.633 145.64 294.547C148.383 294.272 151.276 294.298 153.963 294.829C162.157 296.451 164.323 291.898 164.823 285.393C165.734 273.517 165.732 273.508 177.744 273.252C184.624 273.103 189.472 270.135 195.185 265.981C204.071 259.52 212.05 250.457 224.489 249.314C230.599 248.754 234.918 250.082 236.325 256.516C236.993 259.577 238.359 262.378 242.267 262.142C260.945 261.016 272.99 272.047 284.737 283.7C285.284 284.244 286.126 284.508 287.959 285.536C287.738 277.978 290.017 272.37 297.445 269.556C300.401 268.435 299.749 265.51 297.166 263.755C291.591 259.966 286.623 255.006 290.033 248.439C293.524 241.715 300.892 241.937 307.832 243.652C308.57 243.836 309.43 243.557 310.801 243.448C309.187 235.44 309.908 227.942 315.29 221.379C317.763 218.361 316.778 214.64 316.913 211.184C317.309 200.964 325.678 196.141 334.655 201.481C338.387 203.702 341.461 204.802 345.894 203.753C356.146 201.325 361.27 207.247 364.639 216.233C364.888 210.111 368.689 207.36 373.366 205.474C377.942 203.627 381.336 206.284 384.823 208.587C388.767 211.192 392.405 214.001 394.814 218.154C400.122 227.3 409.245 233.054 416.37 240.59C417.082 241.343 418.214 242.128 419.192 242.179C431.314 242.839 435.885 249.081 434.321 260.555C435.678 255.824 436.452 250.832 438.524 246.414C442.133 238.715 447.224 244.666 451.988 246.127C452.686 244.701 453.256 243.514 453.842 242.334C458.221 233.504 458.737 222.331 472.517 219.945C479.176 218.79 479.971 211.757 479.431 205.21C478.452 193.31 478.773 193.278 491.142 192.112C495.182 191.733 498.197 189.779 498.915 185.925C499.951 180.358 503.67 179.417 508.601 179.219C516.828 178.892 525.042 178.172 533.702 177.587C533.115 172.034 529.732 168.867 527.853 165.105C525.342 160.079 525.486 156.063 529.952 152.062C536.655 146.058 543.812 140.256 543.261 129.911C543.107 127.059 546.299 125.651 548.582 124.08C551.015 122.406 554.199 121.544 555.609 117.935C553.228 114.518 549.093 111.975 548.339 107.001C547.364 100.559 547.457 95.069 554.765 92.2842C558.902 90.7097 559.265 87.5223 559.366 83.7335C559.751 69.2452 562.21 66.4642 576.541 64.2666C580.926 63.596 584.027 60.8599 587.695 59.0124C595.976 54.8441 603.987 49.0706 614.01 54.93C616.06 56.1288 617.718 54.9556 618.916 52.2952C613.801 48.4898 607.922 43.5701 611.547 36.7722C615.358 29.6178 623.937 30.9576 631.253 30.2396C628.674 28.7664 626.107 29.6845 623.666 29.6563C615.364 29.5601 612.667 26.906 613.11 18.958C613.655 9.1816 623.685 1.02199 633.825 0.533495C647.557 -0.126812 658.148 2.68751 660.905 17.7348C660.999 18.2438 661.364 19.1375 661.581 19.1311C673.299 18.8285 678.269 32.9488 690.415 31.768C694.021 31.4166 698.307 30.9717 699.738 35.1823C701.942 41.6649 706.409 40.3494 711.138 39.1403C721.152 36.576 725.622 41.1994 723.357 51.1489C721.645 58.6687 717.17 64.6449 712.404 70.0927C715.739 74.7956 719.594 72.8814 722.958 72.6801C736.903 71.8428 743.777 76.8343 746.137 89.8865C746.941 94.3292 748.275 98.2859 753.274 99.8886C756.796 101.019 757.451 104.649 760.282 107.96C759.341 102.313 761.761 99.504 765.753 97.2692C770.953 94.36 776.239 91.8854 779.748 86.3119C782.468 81.9923 788.951 83.3822 793.75 82.4514C799.95 81.2487 803.11 78.9408 804.167 72.1518C805.719 62.1844 810.756 52.9901 810.907 42.4085C810.972 37.7107 816.592 34.6682 822.034 34.0951C825.683 33.7104 828.22 32.8219 828.856 28.5895C829.432 24.7661 832.866 23.1263 836.444 24.0853C842.138 25.6124 847.513 23.9443 852.93 23.2801C858.586 22.5839 863.424 23.1442 867.393 27.4151C869.637 29.8268 872.574 30.7435 875.746 29.9409C882.549 28.2164 888.909 30.2653 895.487 31.3705C901.611 32.4001 906.197 34.1386 906.746 40.9764C906.949 43.4817 908.934 44.633 911.231 45.1792C916.771 46.4986 920.344 49.1744 921.908 55.0851C923.126 59.6906 927.973 58.8111 930.883 56.7212C935.257 53.5812 939.836 54.1004 944.476 54.5633C954.183 55.5313 956.385 59.2393 952.771 67.8182C950.415 73.416 950.699 78.3472 956.733 81.7551C960.58 83.9297 964.339 86.2542 968.206 88.3941C973.565 91.3584 975.372 96.3486 974.149 101.49C972.856 106.92 969.289 111.16 962.298 110.751C959.571 110.591 956.736 110.974 954.055 111.557C950.749 112.277 946.946 113.515 947.358 117.501C947.731 121.1 948.655 125.48 953.347 126.366C959.848 127.595 965.17 130.415 970.038 134.757C972.131 136.625 975.488 137.232 978.754 136.517C986.18 134.891 993.729 135.479 1001.24 135.682C1006.28 135.82 1011.4 135.804 1013.71 141.647C1015.83 146.99 1018.65 152.023 1012.73 157.055C1009.1 160.142 1011.35 163.745 1014.58 164.794C1024.47 167.998 1025.96 175.523 1026.39 183.9C1026.72 190.312 1029.56 192.31 1035.49 188.762C1041.9 184.931 1049.31 184.898 1056.35 183.518C1062.1 182.391 1064.56 187.168 1067.9 190.219C1069.31 191.51 1070.92 192.824 1071.74 194.459C1076.31 203.477 1082.39 208.356 1093.96 209.03C1103.75 209.601 1112.19 208.826 1120.77 204.677C1130.43 200.005 1135.85 201.905 1143.12 211.851C1145.6 210.655 1145.07 208.137 1145.47 206.235C1148.65 191.042 1153.02 187.777 1168.73 188.907C1171.68 189.119 1173.95 190.057 1176.14 192.014C1184.16 199.19 1190.79 199.398 1199.28 192.501C1202.56 189.84 1205.58 189.517 1209.21 191.27C1211.93 192.584 1214.73 193.745 1217.88 195.145C1220.49 191.085 1220.33 187.481 1217.93 183.772C1211.57 173.962 1213.41 165.515 1223.24 159.151C1226.02 157.353 1228.83 155.68 1230.6 152.721C1236.33 143.148 1245.93 139.84 1256.42 138.865C1270.55 137.549 1284.04 139.793 1296.72 146.624C1303.54 150.301 1311.49 148.735 1318.92 148.769C1333.01 148.833 1344.91 153.934 1355.28 162.631C1359.14 165.865 1363.05 168.702 1367.87 170.321C1373.86 172.331 1379.18 174.932 1380.35 181.949C1380.58 183.327 1382.1 185.507 1383.18 185.595C1397.07 186.734 1397.6 200.563 1405.27 207.602C1410.94 212.808 1408.84 232.404 1403.86 238.706C1397.07 247.286 1397.07 247.286 1381.31 254.276C1380.03 256.737 1382.1 258.341 1383.06 260.136C1385.42 264.529 1385.95 268.452 1384.85 273.815C1383.13 282.18 1382.08 291.334 1391.18 298.099C1397.68 302.925 1397.48 312.037 1392.29 321.834C1397.92 328.67 1405.31 329.193 1410.56 322.029C1416.63 313.746 1424.28 311.806 1433.81 313.704C1434.89 313.919 1436.64 313.8 1436.97 314.403C1443.11 325.712 1458.13 323.81 1466.22 333.917C1467.55 325.038 1469.37 317.396 1480.07 317.798C1481.72 317.861 1484.34 317.796 1484.82 318.666C1488.65 325.643 1496.95 329.458 1499.3 337.202C1501.32 343.866 1497 349.816 1489.72 351.922C1478.53 355.163 1474.15 365.409 1479.88 374.876C1481 376.737 1482.5 378.581 1482.92 380.608C1484.43 387.968 1487.42 392.968 1495.22 396.876C1505.82 402.185 1505.45 421.53 1496 428.546C1494.91 429.36 1492.77 430.54 1492.92 431C1496.21 441.13 1487.07 451.2 1492.79 461.246C1498.45 471.207 1503.16 481.554 1506.36 492.51C1508.87 501.116 1505.21 508.196 1496.4 510.814C1487.9 513.341 1479.18 515.194 1470.6 517.507C1467.19 518.427 1464.16 519.37 1462.65 523.588C1459.8 531.551 1444.89 533.713 1438.02 528.325C1430.29 522.272 1422.7 516.184 1416.74 505.869C1414.14 513.169 1417.73 519 1412.17 522.546C1407.75 525.368 1403.71 528.109 1399.03 522.99C1395.55 519.189 1391.98 520.147 1389.28 523.819C1386.57 527.511 1388.45 530.24 1391.95 532.545C1401.91 539.104 1405.6 551.791 1401.11 563.397C1399.13 568.522 1396.29 573.022 1399.26 579.311C1402.67 586.53 1394.24 593.661 1386.84 597.838C1384.47 599.176 1381.6 599.649 1379.08 600.775C1374.53 602.807 1372.19 605.003 1375.2 610.709C1378.33 616.645 1379.19 623.098 1369.99 626.389C1364.94 628.199 1365.13 633.857 1369.67 638.216C1379.39 647.54 1376.92 656.144 1363.62 660.969C1357.44 663.208 1353.25 670.102 1345.26 668.271C1343.13 667.785 1340.79 668.013 1338.75 667.345C1332.23 665.212 1325.85 667.603 1325.34 674.016C1324.79 680.992 1324.22 688.535 1329.3 694.824C1333.27 699.74 1332.2 707.716 1327.19 712.031C1320.78 717.554 1313.6 717.467 1308.01 712.024C1305.42 709.51 1303.96 704.68 1297.95 706.81C1300.05 713.226 1306.7 713.327 1310.76 716.455C1314.14 719.062 1316.45 721.454 1315.9 725.742C1314.81 734.32 1308.42 740.985 1306.81 749.469C1306.39 751.657 1302.77 751.785 1300.29 752.339C1293.02 753.965 1285.81 755.849 1278.26 757.709C1278.68 763.946 1286.88 769.115 1278.51 775.366C1285.78 779.291 1289.8 784.479 1292.68 790.723C1296.84 799.726 1293.19 807.715 1283.14 809.537C1273.53 811.278 1263.7 812.76 1255.71 804.811C1253.29 802.395 1250.74 802.708 1248.49 805.135C1246.12 807.687 1242.76 809.47 1241.69 813.126C1243.42 816.684 1247.3 816.319 1250.18 817.638C1256.55 820.56 1259.4 826.127 1258.73 832.078C1258.08 837.898 1254.91 843.475 1247.53 844.504C1245.35 844.809 1242.56 844.456 1241.54 846.664C1237.59 855.219 1230.53 859.702 1221.22 860.878C1221.73 866.449 1225.16 868.774 1228.45 871.238C1235.03 876.17 1236.18 882.903 1230.52 888.358C1227.21 891.552 1225.48 894.859 1225.93 899.036C1226.5 904.471 1220.85 906.5 1219.43 911.067C1222.17 915.562 1228.36 916.999 1229.78 923.071C1231.81 931.771 1229.56 937.083 1221.11 940.403C1208.15 945.497 1194.67 942.995 1181.43 943.05C1166.18 943.114 1166.3 942.747 1161.19 956.223C1157.06 967.108 1146.94 973.297 1139.08 981.096C1133.05 987.083 1130.12 991.56 1137.07 998.576C1141.56 1003.11 1138.62 1008.42 1136.31 1012.93C1134.79 1015.91 1134.14 1017.97 1135.16 1021.6C1137.3 1029.21 1137.73 1037.22 1128.82 1042.07C1127.91 1042.57 1127.13 1043.48 1126.54 1044.36C1120.68 1053.16 1113.76 1054.29 1104.15 1049.14C1097.22 1045.42 1089.66 1043.05 1083.51 1037.72C1079.53 1034.28 1075.92 1035.43 1074.96 1041.39C1073.98 1047.5 1072.51 1053.45 1069.65 1059.17C1065.16 1068.15 1058.05 1072.6 1048 1073.13C1043.99 1073.34 1039.87 1073.66 1038.79 1078.35C1037.84 1082.45 1040.13 1085 1043.21 1087.95C1051.1 1095.5 1053.11 1106.15 1056.95 1116.5Z" stroke="#C9C9C9" stroke-width="0.944882" stroke-miterlimit="22.9256" stroke-dasharray="0.94 2.83"/>
</g>
</mask>
<g mask="url(#mask0_155_113)">
<path d="M-18.8979 -31.6564H452.502L1785.53 -115L1802.97 507.454L1681.51 1612.48L-67 1562.94L-18.8979 -31.6564Z" fill="#193232"/>
</g>
<path d="M686.928 298.494V282.702L684.96 282.51V282.318H690.864V282.51L688.776 282.702V298.59H694.08C694.464 298.59 694.744 298.534 694.92 298.422C695.096 298.294 695.256 298.054 695.4 297.702L697.032 293.598L697.32 293.646L696.72 298.878H684.96V298.686L686.928 298.494ZM707.088 296.142L707.184 296.19L707.088 296.454C706.768 297.302 706.288 297.958 705.648 298.422C705.024 298.886 704.272 299.118 703.392 299.118C702.528 299.118 701.76 298.894 701.088 298.446C700.416 297.998 699.888 297.374 699.504 296.574C699.136 295.774 698.952 294.854 698.952 293.814C698.952 292.774 699.152 291.846 699.552 291.03C699.952 290.214 700.52 289.582 701.256 289.134C701.992 288.686 702.832 288.462 703.776 288.462C704.896 288.462 705.752 288.798 706.344 289.47C706.952 290.126 707.264 291.086 707.28 292.35L707.136 292.47H700.656C700.624 292.886 700.608 293.214 700.608 293.454C700.608 294.91 700.904 296.022 701.496 296.79C702.088 297.542 702.912 297.918 703.968 297.918C704.512 297.918 705.032 297.798 705.528 297.558C706.04 297.302 706.488 296.926 706.872 296.43L707.088 296.142ZM703.512 288.726C702.76 288.726 702.136 289.038 701.64 289.662C701.144 290.286 700.824 291.134 700.68 292.206L705.336 292.038C705.384 291.846 705.408 291.526 705.408 291.078C705.408 290.214 705.24 289.606 704.904 289.254C704.584 288.902 704.12 288.726 703.512 288.726ZM716.253 288.294C715.933 288.294 715.701 288.622 715.557 289.278C715.973 289.598 716.293 289.99 716.517 290.454C716.741 290.902 716.853 291.406 716.853 291.966C716.853 292.83 716.589 293.574 716.061 294.198C715.549 294.806 714.861 295.198 713.997 295.374C713.805 295.422 713.613 295.446 713.421 295.446C712.589 295.59 711.941 295.79 711.477 296.046C711.029 296.302 710.805 296.59 710.805 296.91C710.805 297.134 710.877 297.326 711.021 297.486C711.165 297.63 711.437 297.774 711.837 297.918C712.237 298.046 712.837 298.182 713.637 298.326C714.997 298.582 715.965 298.942 716.541 299.406C717.117 299.87 717.405 300.526 717.405 301.374C717.405 302.014 717.197 302.59 716.781 303.102C716.365 303.63 715.789 304.038 715.053 304.326C714.317 304.63 713.493 304.782 712.581 304.782C711.253 304.782 710.221 304.542 709.485 304.062C708.765 303.598 708.405 302.942 708.405 302.094C708.405 301.502 708.637 300.95 709.101 300.438C709.581 299.942 710.221 299.566 711.021 299.31C710.461 299.086 710.053 298.838 709.797 298.566C709.557 298.278 709.437 297.942 709.437 297.558C709.437 297.11 709.701 296.702 710.229 296.334C710.773 295.966 711.549 295.67 712.557 295.446C711.565 295.35 710.757 294.982 710.133 294.342C709.525 293.702 709.221 292.902 709.221 291.942C709.221 290.918 709.573 290.086 710.277 289.446C710.997 288.79 711.917 288.462 713.037 288.462C713.933 288.462 714.709 288.678 715.365 289.11C715.765 287.734 716.381 287.046 717.213 287.046C717.517 287.046 717.757 287.134 717.933 287.31C718.109 287.47 718.197 287.686 718.197 287.958C718.197 288.182 718.117 288.374 717.957 288.534C717.797 288.694 717.605 288.774 717.381 288.774C717.189 288.774 716.989 288.686 716.781 288.51C716.749 288.494 716.677 288.454 716.565 288.39C716.469 288.326 716.365 288.294 716.253 288.294ZM713.037 295.23C713.645 295.23 714.133 294.926 714.501 294.318C714.885 293.71 715.077 292.926 715.077 291.966C715.077 291.006 714.885 290.222 714.501 289.614C714.133 289.006 713.645 288.702 713.037 288.702C712.429 288.702 711.933 289.006 711.549 289.614C711.181 290.222 710.997 291.006 710.997 291.966C710.997 292.926 711.181 293.71 711.549 294.318C711.933 294.926 712.429 295.23 713.037 295.23ZM716.013 302.094C716.013 301.486 715.797 301.014 715.365 300.678C714.933 300.358 714.117 300.078 712.917 299.838C712.245 299.726 711.693 299.582 711.261 299.406C710.125 299.806 709.557 300.63 709.557 301.878C709.557 302.726 709.829 303.382 710.373 303.846C710.933 304.31 711.717 304.542 712.725 304.542C713.733 304.542 714.533 304.318 715.125 303.87C715.717 303.438 716.013 302.846 716.013 302.094ZM728.524 298.686V298.878H724.06V298.686L725.524 298.494V292.374C725.524 291.75 725.508 291.286 725.476 290.982C725.444 290.678 725.38 290.422 725.284 290.214C725.156 289.942 724.94 289.734 724.636 289.59C724.348 289.43 724.012 289.35 723.628 289.35C722.812 289.35 722.084 289.694 721.444 290.382V298.494L722.908 298.686V298.878H718.42V298.686L719.884 298.494V290.214L718.468 289.686V289.518L721.18 288.582H721.372V290.094C722.396 289.006 723.468 288.462 724.588 288.462C725.084 288.462 725.532 288.574 725.932 288.798C726.348 289.006 726.644 289.286 726.82 289.638C726.932 289.846 727.004 290.134 727.036 290.502C727.068 290.854 727.084 291.478 727.084 292.374V298.494L728.524 298.686ZM730.778 284.19C730.57 284.398 730.466 284.67 730.466 285.006C730.466 285.342 730.57 285.622 730.778 285.846C731.002 286.054 731.282 286.158 731.618 286.158C731.954 286.158 732.226 286.054 732.434 285.846C732.658 285.622 732.77 285.342 732.77 285.006C732.77 284.67 732.658 284.398 732.434 284.19C732.226 283.966 731.954 283.854 731.618 283.854C731.282 283.854 731.002 283.966 730.778 284.19ZM732.53 288.462V298.494L733.994 298.686V298.878H729.506V298.686L730.97 298.494V290.094L729.554 289.566V289.398L732.338 288.462H732.53ZM737.655 289.158C738.375 288.694 739.191 288.462 740.103 288.462C740.999 288.462 741.751 288.662 742.359 289.062C742.983 289.462 743.295 289.958 743.295 290.55C743.295 290.822 743.215 291.046 743.055 291.222C742.895 291.382 742.679 291.462 742.407 291.462C742.087 291.462 741.863 291.366 741.735 291.174C741.623 290.966 741.519 290.646 741.423 290.214C741.311 289.718 741.167 289.342 740.991 289.086C740.815 288.83 740.487 288.702 740.007 288.702C739.431 288.702 738.911 288.91 738.447 289.326C737.983 289.742 737.615 290.318 737.343 291.054C737.087 291.79 736.959 292.622 736.959 293.55C736.959 294.942 737.255 296.022 737.847 296.79C738.439 297.558 739.279 297.942 740.367 297.942C740.959 297.942 741.487 297.822 741.951 297.582C742.431 297.326 742.871 296.942 743.271 296.43L743.487 296.142L743.583 296.19L743.487 296.454C743.167 297.302 742.679 297.958 742.023 298.422C741.383 298.886 740.623 299.118 739.743 299.118C738.895 299.118 738.135 298.902 737.463 298.47C736.807 298.022 736.287 297.406 735.903 296.622C735.535 295.822 735.351 294.918 735.351 293.91C735.351 292.87 735.551 291.934 735.951 291.102C736.367 290.27 736.935 289.622 737.655 289.158ZM747.261 299.046C746.653 299.046 746.149 298.838 745.749 298.422C745.365 297.99 745.173 297.438 745.173 296.766C745.173 295.966 745.533 295.326 746.253 294.846C746.989 294.366 748.229 293.95 749.973 293.598V291.414C749.973 290.486 749.869 289.846 749.661 289.494C749.453 289.126 749.093 288.942 748.581 288.942C748.085 288.942 747.685 289.078 747.381 289.35C747.077 289.606 746.925 289.958 746.925 290.406L746.949 291.054C746.949 291.454 746.869 291.774 746.709 292.014C746.565 292.238 746.357 292.35 746.085 292.35C745.845 292.35 745.645 292.27 745.485 292.11C745.341 291.95 745.269 291.742 745.269 291.486C745.269 291.102 745.453 290.686 745.821 290.238C746.205 289.774 746.693 289.39 747.285 289.086C748.005 288.686 748.749 288.486 749.517 288.486C749.965 288.486 750.341 288.574 750.645 288.75C750.965 288.926 751.197 289.174 751.341 289.494C751.421 289.702 751.469 289.958 751.485 290.262C751.517 290.566 751.533 291.15 751.533 292.014V296.598C751.533 297.174 751.589 297.574 751.701 297.798C751.813 298.006 752.013 298.11 752.301 298.11C752.733 298.11 753.053 297.958 753.261 297.654L753.357 297.702C753.165 298.102 752.909 298.414 752.589 298.638C752.269 298.846 751.925 298.95 751.557 298.95C751.141 298.95 750.797 298.83 750.525 298.59C750.253 298.334 750.101 297.998 750.069 297.582L749.997 297.558C749.629 298.022 749.205 298.39 748.725 298.662C748.245 298.918 747.757 299.046 747.261 299.046ZM748.293 298.134C748.629 298.134 748.941 298.062 749.229 297.918C749.533 297.758 749.781 297.534 749.973 297.246V293.862C749.141 294.07 748.493 294.278 748.029 294.486C747.581 294.694 747.261 294.942 747.069 295.23C746.877 295.518 746.781 295.878 746.781 296.31C746.781 296.87 746.917 297.318 747.189 297.654C747.461 297.974 747.829 298.134 748.293 298.134Z" fill="#1F3F3E"/>
<ellipse cx="716" cy="332.446" rx="25" ry="21.757" fill="#1F3F3E" fill-opacity="0.1"/>
<ellipse cx="715.5" cy="332.012" rx="2.5" ry="2.1757" fill="#1F3F3E" fill-opacity="0.3"/>
<ellipse cx="715.5" cy="332.011" rx="9.5" ry="8.26765" fill="#1F3F3E" fill-opacity="0.2"/>
<defs>
<clipPath id="clip0_155_113">
<rect width="1508" height="1330" fill="white"/>
</clipPath>
</defs>
</svg>
