<svg width="1068" height="931" viewBox="0 0 1068 931" fill="none" xmlns="http://www.w3.org/2000/svg">
<mask id="mask0_27_5010" style="mask-type:alpha" maskUnits="userSpaceOnUse" x="0" y="0" width="1508" height="1330">
<g clip-path="url(#clip0_27_5010)">
<path d="M1056.95 1116.5C1059.22 1126.67 1057.92 1136.55 1060.79 1146.02C1062.21 1150.69 1063.92 1152.48 1069.32 1152.2C1082.89 1151.51 1090.52 1156.74 1095.45 1168.99C1099.16 1178.21 1103.59 1187.02 1097.68 1197.46C1095.04 1202.11 1095.21 1208.96 1100.15 1213.35C1107.29 1219.72 1104.11 1225.94 1100.71 1232.29C1097.8 1237.72 1092.75 1241.54 1086.82 1241.19C1079.86 1240.79 1076.3 1234.82 1073.53 1229.05C1072.73 1227.39 1072.24 1225.6 1071.61 1223.85C1069.35 1224.03 1069.16 1225.79 1068.7 1227.26C1066.01 1235.8 1058.64 1238.96 1050.98 1234.04C1045.88 1230.77 1040.77 1231.02 1037.06 1234.22C1025.68 1244.06 1011.07 1248.76 999.087 1257.6C995.441 1260.29 992.635 1262.8 993.307 1267.39C995.396 1281.64 987.974 1290.28 975.651 1296.23C971.42 1298.27 967.562 1301.25 963.146 1302.67C955.447 1305.16 951.57 1310.27 949.081 1317.38C944.28 1331.09 938.715 1333.27 925.048 1327.34C912.248 1321.79 900.629 1314.55 890.297 1305.24C882.757 1298.45 874.883 1291.93 866.618 1286C860.561 1281.65 858.274 1276.48 858.513 1269.41C858.815 1260.51 858.336 1251.59 858.434 1242.68C858.519 1235 856.425 1228.53 850.04 1223.37C842.558 1217.33 835.62 1210.65 828.274 1204.45C822.541 1199.6 818.708 1193.73 818.373 1186.38C817.778 1173.36 807.736 1165.41 801.227 1155.63C798.863 1152.08 793.839 1152.21 789.607 1152.49C771.9 1153.65 764.076 1137.88 767.052 1124.11C769.228 1114.05 766.597 1110.33 756.083 1108.68C750.03 1107.73 744.001 1107 737.831 1107.02C729.4 1107.06 722.063 1105.24 717.886 1096.68C714.883 1090.53 708.129 1088.1 701.794 1088.03C693.463 1087.93 690.39 1083.33 688.69 1076.99C687.456 1072.39 685.525 1068.71 681.776 1065.41C675.42 1059.81 677.223 1050.67 684.677 1046.57C695.114 1040.83 704.887 1034.52 708.323 1022.17C709.307 1018.63 711.95 1015.44 715.193 1013.17C723.229 1007.55 728.472 1012.34 732.716 1018.06C736.477 1017.59 736.688 1015.38 736.643 1013.16C736.469 1004.61 740.142 998.65 748.773 995.967C757.222 993.342 761.576 998.748 765.933 1004.19C766.226 1004.55 766.897 1004.63 767.697 1004.97C774.182 999.676 780.858 994.637 780.636 984.906C780.529 980.199 783.78 977.037 788.348 975.655C784.762 962.86 786.872 959.742 799.436 958.606C806.526 957.965 809.314 952.79 804.661 947.428C794.307 935.499 785.782 921.934 772.256 912.751C766.954 909.152 762.681 904.919 760.95 898.304C759.738 893.672 756.832 890.419 750.374 893.248C744.464 895.838 738.196 895.041 733.927 889.385C731.181 885.745 727.224 884.73 723.136 883.923C717.333 882.78 713.653 884.49 712.253 890.743C710.937 896.636 711.412 903.031 706.264 908.012C698.881 915.159 687.301 916.346 679.564 909.442C672.393 903.044 665.798 896.032 657.005 891.589C653.092 889.611 653.316 885.394 651.317 880.024C649.884 887.604 646.862 891.85 641.302 893.975C632.484 897.342 628.686 904.026 627.887 912.778C627.418 917.941 626.156 922.425 619.349 922.626C616.596 922.71 615.268 925.186 613.628 927.002C605.463 936.033 590.866 935.493 583.551 925.91C576.857 917.141 578.928 909.382 589.232 904.594C590.69 903.917 592.555 903.786 593.236 901.679C586.491 891.478 590.679 879.892 589.417 868.88C589.006 865.294 591.474 860.161 587.388 858.484C582.724 856.567 577.224 858.52 573.648 862.097C568.853 866.895 563.281 867.94 556.94 867.454C552.018 867.079 547.727 868.472 543.594 871.146C534.958 876.732 521.535 871.819 519.698 861.894C517.528 850.178 515.967 838.48 508.065 828.691C505.333 825.306 508.198 821.321 507.37 817.148C501.944 816.267 498.967 819.136 496.337 823.258C488.159 836.081 480.614 836.736 470.407 825.22C466.374 820.67 462.887 819.967 457.598 823.338C449.827 828.291 437.434 823.752 436.53 814.737C435.578 805.22 428.595 803.594 422.163 801.412C415.631 799.196 409.581 796.967 403.552 793.242C396.69 789.002 387.655 789.251 379.346 791.4C366.565 794.704 358.5 792.35 351.235 781.319C346.426 774.017 340.174 770.012 331.692 769.222C326.068 768.698 322.054 765.7 317.955 761.415C314.177 767.421 309.833 771.74 309.411 778.443C308.952 785.753 302.646 788.587 296.678 789.172C290.385 789.788 284.118 786.863 282.987 779.894C281.525 770.888 277.817 762.158 278.902 752.808C279.764 745.352 276.646 739.77 270.714 735.281C266.547 732.128 262.712 728.55 258.463 725.512C254.419 722.623 251.5 719.453 251.747 714.195C251.947 709.977 249.927 706.426 245.691 705.531C238.569 704.025 235.735 698.931 233.67 693.277C228.312 678.606 226.515 664.514 239.986 652.249C247.24 645.642 246.948 642.584 238.953 636.816C231.29 631.286 226.655 623.089 219.767 617.005C204.843 629.582 199.596 627.758 186.987 605.812C183.616 609.738 185.32 617.032 177.605 617.782C168.888 618.63 163.146 615.923 160.102 607.669C159.095 604.939 158.172 602.473 155.1 601.816C143.153 599.258 131.631 595.478 120.394 590.83C118.083 589.875 115.948 590.333 114.327 592.155C110.133 596.871 105.885 601.263 99.3651 603.281C96.2512 604.245 96.8399 607.242 99.1006 609.118C100.292 610.107 102.091 610.436 103.643 610.991C120.554 617.059 126.721 632.139 118.94 647.885C117.111 651.585 114.162 653.597 110.662 655.457C101.556 660.292 98.8188 669.604 104.98 677.79C110.912 685.662 110.855 694.252 106.596 701.388C102.628 708.032 94.4191 711.493 85.8725 711.549C76.1935 711.611 66.1666 712.281 59.0632 703.406C57.3197 704.357 55.2416 706.402 54.0669 705.996C39.733 701.029 24.5591 711.213 10.3627 703.498C6.42206 701.354 2.98806 699.464 3.75528 694.493C4.17461 691.77 2.59121 690.028 1.3663 687.894C-3.7318 679.006 0.1718 672.429 10.5095 672.126C28.7233 671.592 41.6974 660.873 44.1485 643.468C45.1552 636.306 48.4635 630.303 53.2931 625.677C64.2089 615.219 69.1377 602.467 70.934 588.248C71.8084 581.322 75.2676 576.486 80.8009 572.148C88.8356 565.851 91.1478 556.337 93.0924 547.103C95.2565 536.826 96.5383 526.604 102.611 517.264C107.098 510.364 105.033 501.466 106.162 493.501C108.344 478.091 115.361 463.369 113.276 447.344C113.154 446.411 113.708 444.84 114.449 444.442C128.266 437.04 125.283 421.327 132.224 410.295C140.592 396.988 134.176 377.325 122.979 365.789C113.085 355.593 104.351 344.337 104.836 328.943C105.051 322.16 108.08 318.959 115.01 319.079C117.238 319.116 119.5 318.813 121.691 319.084C129.343 320.034 132.042 317.045 131.709 309.518C131.246 299.031 134.807 295.633 145.64 294.547C148.383 294.272 151.276 294.298 153.963 294.829C162.157 296.451 164.323 291.898 164.823 285.393C165.734 273.517 165.732 273.508 177.744 273.252C184.624 273.103 189.472 270.135 195.185 265.981C204.071 259.52 212.05 250.457 224.489 249.314C230.599 248.754 234.918 250.082 236.325 256.516C236.993 259.577 238.359 262.378 242.267 262.142C260.945 261.016 272.99 272.047 284.737 283.7C285.284 284.244 286.126 284.508 287.959 285.536C287.738 277.978 290.017 272.37 297.445 269.556C300.401 268.435 299.749 265.51 297.166 263.755C291.591 259.966 286.623 255.006 290.033 248.439C293.524 241.715 300.892 241.937 307.832 243.652C308.57 243.836 309.43 243.557 310.801 243.448C309.187 235.44 309.908 227.942 315.29 221.379C317.763 218.361 316.778 214.64 316.913 211.184C317.309 200.964 325.678 196.141 334.655 201.481C338.387 203.702 341.461 204.802 345.894 203.753C356.146 201.325 361.27 207.247 364.639 216.233C364.888 210.111 368.689 207.36 373.366 205.474C377.942 203.627 381.336 206.284 384.823 208.587C388.767 211.192 392.405 214.001 394.814 218.154C400.122 227.3 409.245 233.054 416.37 240.59C417.082 241.343 418.214 242.128 419.192 242.179C431.314 242.839 435.885 249.081 434.321 260.555C435.678 255.824 436.452 250.832 438.524 246.414C442.133 238.715 447.224 244.666 451.988 246.127C452.686 244.701 453.256 243.514 453.842 242.334C458.221 233.504 458.737 222.331 472.517 219.945C479.176 218.79 479.971 211.757 479.431 205.21C478.452 193.31 478.773 193.278 491.142 192.112C495.182 191.733 498.197 189.779 498.915 185.925C499.951 180.358 503.67 179.417 508.601 179.219C516.828 178.892 525.042 178.172 533.702 177.587C533.115 172.034 529.732 168.867 527.853 165.105C525.342 160.079 525.486 156.063 529.952 152.062C536.655 146.058 543.812 140.256 543.261 129.911C543.107 127.059 546.299 125.651 548.582 124.08C551.015 122.406 554.199 121.544 555.609 117.935C553.228 114.518 549.093 111.975 548.339 107.001C547.364 100.559 547.457 95.069 554.765 92.2842C558.902 90.7097 559.265 87.5223 559.366 83.7335C559.751 69.2452 562.21 66.4642 576.541 64.2666C580.926 63.596 584.027 60.8599 587.695 59.0124C595.976 54.8441 603.987 49.0706 614.01 54.93C616.06 56.1288 617.718 54.9556 618.916 52.2952C613.801 48.4898 607.922 43.5701 611.547 36.7722C615.358 29.6178 623.937 30.9576 631.253 30.2396C628.674 28.7664 626.107 29.6845 623.666 29.6563C615.364 29.5601 612.667 26.906 613.11 18.958C613.655 9.1816 623.685 1.02199 633.825 0.533495C647.557 -0.126812 658.148 2.68751 660.905 17.7348C660.999 18.2438 661.364 19.1375 661.581 19.1311C673.299 18.8285 678.269 32.9488 690.415 31.768C694.021 31.4166 698.307 30.9717 699.738 35.1823C701.942 41.6649 706.409 40.3494 711.138 39.1403C721.152 36.576 725.622 41.1994 723.357 51.1489C721.645 58.6687 717.17 64.6449 712.404 70.0927C715.739 74.7956 719.594 72.8814 722.958 72.6801C736.903 71.8428 743.777 76.8343 746.137 89.8865C746.941 94.3292 748.275 98.2859 753.274 99.8886C756.796 101.019 757.451 104.649 760.282 107.96C759.341 102.313 761.761 99.504 765.753 97.2692C770.953 94.36 776.239 91.8854 779.748 86.3119C782.468 81.9923 788.951 83.3822 793.75 82.4514C799.95 81.2487 803.11 78.9408 804.167 72.1518C805.719 62.1844 810.756 52.9901 810.907 42.4085C810.972 37.7107 816.592 34.6682 822.034 34.0951C825.683 33.7104 828.22 32.8219 828.856 28.5895C829.432 24.7661 832.866 23.1263 836.444 24.0853C842.138 25.6124 847.513 23.9443 852.93 23.2801C858.586 22.5839 863.424 23.1442 867.393 27.4151C869.637 29.8268 872.574 30.7435 875.746 29.9409C882.549 28.2164 888.909 30.2653 895.487 31.3705C901.611 32.4001 906.197 34.1386 906.746 40.9764C906.949 43.4817 908.934 44.633 911.231 45.1792C916.771 46.4986 920.344 49.1744 921.908 55.0851C923.126 59.6906 927.973 58.8111 930.883 56.7212C935.257 53.5812 939.836 54.1004 944.476 54.5633C954.183 55.5313 956.385 59.2393 952.771 67.8182C950.415 73.416 950.699 78.3472 956.733 81.7551C960.58 83.9297 964.339 86.2542 968.206 88.3941C973.565 91.3584 975.372 96.3486 974.149 101.49C972.856 106.92 969.289 111.16 962.298 110.751C959.571 110.591 956.736 110.974 954.055 111.557C950.749 112.277 946.946 113.515 947.358 117.501C947.731 121.1 948.655 125.48 953.347 126.366C959.848 127.595 965.17 130.415 970.038 134.757C972.131 136.625 975.488 137.232 978.754 136.517C986.18 134.891 993.729 135.479 1001.24 135.682C1006.28 135.82 1011.4 135.804 1013.71 141.647C1015.83 146.99 1018.65 152.023 1012.73 157.055C1009.1 160.142 1011.35 163.745 1014.58 164.794C1024.47 167.998 1025.96 175.523 1026.39 183.9C1026.72 190.312 1029.56 192.31 1035.49 188.762C1041.9 184.931 1049.31 184.898 1056.35 183.518C1062.1 182.391 1064.56 187.168 1067.9 190.219C1069.31 191.51 1070.92 192.824 1071.74 194.459C1076.31 203.477 1082.39 208.356 1093.96 209.03C1103.75 209.601 1112.19 208.826 1120.77 204.677C1130.43 200.005 1135.85 201.905 1143.12 211.851C1145.6 210.655 1145.07 208.137 1145.47 206.235C1148.65 191.042 1153.02 187.777 1168.73 188.907C1171.68 189.119 1173.95 190.057 1176.14 192.014C1184.16 199.19 1190.79 199.398 1199.28 192.501C1202.56 189.84 1205.58 189.517 1209.21 191.27C1211.93 192.584 1214.73 193.745 1217.88 195.145C1220.49 191.085 1220.33 187.481 1217.93 183.772C1211.57 173.962 1213.41 165.515 1223.24 159.151C1226.02 157.353 1228.83 155.68 1230.6 152.721C1236.33 143.148 1245.93 139.84 1256.42 138.865C1270.55 137.549 1284.04 139.793 1296.72 146.624C1303.54 150.301 1311.49 148.735 1318.92 148.769C1333.01 148.833 1344.91 153.934 1355.28 162.631C1359.14 165.865 1363.05 168.702 1367.87 170.321C1373.86 172.331 1379.18 174.932 1380.35 181.949C1380.58 183.327 1382.1 185.507 1383.18 185.595C1397.07 186.734 1397.6 200.563 1405.27 207.602C1410.94 212.808 1408.84 232.404 1403.86 238.706C1397.07 247.286 1397.07 247.286 1381.31 254.276C1380.03 256.737 1382.1 258.341 1383.06 260.136C1385.42 264.529 1385.95 268.452 1384.85 273.815C1383.13 282.18 1382.08 291.334 1391.18 298.099C1397.68 302.925 1397.48 312.037 1392.29 321.834C1397.92 328.67 1405.31 329.193 1410.56 322.029C1416.63 313.746 1424.28 311.806 1433.81 313.704C1434.89 313.919 1436.64 313.8 1436.97 314.403C1443.11 325.712 1458.13 323.81 1466.22 333.917C1467.55 325.038 1469.37 317.396 1480.07 317.798C1481.72 317.861 1484.34 317.796 1484.82 318.666C1488.65 325.643 1496.95 329.458 1499.3 337.202C1501.32 343.866 1497 349.816 1489.72 351.922C1478.53 355.163 1474.15 365.409 1479.88 374.876C1481 376.737 1482.5 378.581 1482.92 380.608C1484.43 387.968 1487.42 392.968 1495.22 396.876C1505.82 402.185 1505.45 421.53 1496 428.546C1494.91 429.36 1492.77 430.54 1492.92 431C1496.21 441.13 1487.07 451.2 1492.79 461.246C1498.45 471.207 1503.16 481.554 1506.36 492.51C1508.87 501.116 1505.21 508.196 1496.4 510.814C1487.9 513.341 1479.18 515.194 1470.6 517.507C1467.19 518.427 1464.16 519.37 1462.65 523.588C1459.8 531.551 1444.89 533.713 1438.02 528.325C1430.29 522.272 1422.7 516.184 1416.74 505.869C1414.14 513.169 1417.73 519 1412.17 522.546C1407.75 525.368 1403.71 528.109 1399.03 522.99C1395.55 519.189 1391.98 520.147 1389.28 523.819C1386.57 527.511 1388.45 530.24 1391.95 532.545C1401.91 539.104 1405.6 551.791 1401.11 563.397C1399.13 568.522 1396.29 573.022 1399.26 579.311C1402.67 586.53 1394.24 593.661 1386.84 597.838C1384.47 599.176 1381.6 599.649 1379.08 600.775C1374.53 602.807 1372.19 605.003 1375.2 610.709C1378.33 616.645 1379.19 623.098 1369.99 626.389C1364.94 628.199 1365.13 633.857 1369.67 638.216C1379.39 647.54 1376.92 656.144 1363.62 660.969C1357.44 663.208 1353.25 670.102 1345.26 668.271C1343.13 667.785 1340.79 668.013 1338.75 667.345C1332.23 665.212 1325.85 667.603 1325.34 674.016C1324.79 680.992 1324.22 688.535 1329.3 694.824C1333.27 699.74 1332.2 707.716 1327.19 712.031C1320.78 717.554 1313.6 717.467 1308.01 712.024C1305.42 709.51 1303.96 704.68 1297.95 706.81C1300.05 713.226 1306.7 713.327 1310.76 716.455C1314.14 719.062 1316.45 721.454 1315.9 725.742C1314.81 734.32 1308.42 740.985 1306.81 749.469C1306.39 751.657 1302.77 751.785 1300.29 752.339C1293.02 753.965 1285.81 755.849 1278.26 757.709C1278.68 763.946 1286.88 769.115 1278.51 775.366C1285.78 779.291 1289.8 784.479 1292.68 790.723C1296.84 799.726 1293.19 807.715 1283.14 809.537C1273.53 811.278 1263.7 812.76 1255.71 804.811C1253.29 802.395 1250.74 802.708 1248.49 805.135C1246.12 807.687 1242.76 809.47 1241.69 813.126C1243.42 816.684 1247.3 816.319 1250.18 817.638C1256.55 820.56 1259.4 826.127 1258.73 832.078C1258.08 837.898 1254.91 843.475 1247.53 844.504C1245.35 844.809 1242.56 844.456 1241.54 846.664C1237.59 855.219 1230.53 859.702 1221.22 860.878C1221.73 866.449 1225.16 868.774 1228.45 871.238C1235.03 876.17 1236.18 882.903 1230.52 888.358C1227.21 891.552 1225.48 894.859 1225.93 899.036C1226.5 904.471 1220.85 906.5 1219.43 911.067C1222.17 915.562 1228.36 916.999 1229.78 923.071C1231.81 931.771 1229.56 937.083 1221.11 940.403C1208.15 945.497 1194.67 942.995 1181.43 943.05C1166.18 943.114 1166.3 942.747 1161.19 956.223C1157.06 967.108 1146.94 973.297 1139.08 981.096C1133.05 987.083 1130.12 991.56 1137.07 998.576C1141.56 1003.11 1138.62 1008.42 1136.31 1012.93C1134.79 1015.91 1134.14 1017.97 1135.16 1021.6C1137.3 1029.21 1137.73 1037.22 1128.82 1042.07C1127.91 1042.57 1127.13 1043.48 1126.54 1044.36C1120.68 1053.16 1113.76 1054.29 1104.15 1049.14C1097.22 1045.42 1089.66 1043.05 1083.51 1037.72C1079.53 1034.28 1075.92 1035.43 1074.96 1041.39C1073.98 1047.5 1072.51 1053.45 1069.65 1059.17C1065.16 1068.15 1058.05 1072.6 1048 1073.13C1043.99 1073.34 1039.87 1073.66 1038.79 1078.35C1037.84 1082.45 1040.13 1085 1043.21 1087.95C1051.1 1095.5 1053.11 1106.15 1056.95 1116.5Z" stroke="#C9C9C9" stroke-width="0.944882" stroke-miterlimit="22.9256" stroke-dasharray="0.94 2.83"/>
</g>
</mask>
<g mask="url(#mask0_27_5010)">
<path d="M-17.8979 -34.6564H453.502L1786.53 -118L1803.97 504.454L1682.51 1609.48L-66 1559.94L-17.8979 -34.6564Z" fill="#D9D9D9"/>
</g>
<path d="M652.528 295.808V296H650.056C649.672 296 649.384 295.944 649.192 295.832C649 295.72 648.8 295.504 648.592 295.184L644.92 289.256C644.696 288.888 644.504 288.664 644.344 288.584C644.2 288.488 643.936 288.44 643.552 288.44H641.776V295.616L643.864 295.808V296H637.96V295.808L639.928 295.616V279.824L637.96 279.632V279.44H644.032C645.92 279.44 647.36 279.824 648.352 280.592C649.344 281.344 649.84 282.44 649.84 283.88C649.84 285 649.536 285.92 648.928 286.64C648.32 287.36 647.44 287.856 646.288 288.128H646.312L650.704 294.992C650.912 295.312 651.112 295.528 651.304 295.64C651.512 295.752 651.808 295.808 652.192 295.808H652.528ZM641.776 279.728V288.08H643.96C645.24 288.08 646.184 287.744 646.792 287.072C647.416 286.384 647.728 285.336 647.728 283.928C647.728 282.504 647.416 281.448 646.792 280.76C646.168 280.072 645.224 279.728 643.96 279.728H641.776ZM654.862 296.168C654.254 296.168 653.75 295.96 653.35 295.544C652.966 295.112 652.774 294.56 652.774 293.888C652.774 293.088 653.134 292.448 653.854 291.968C654.59 291.488 655.83 291.072 657.574 290.72V288.536C657.574 287.608 657.47 286.968 657.262 286.616C657.054 286.248 656.694 286.064 656.182 286.064C655.686 286.064 655.286 286.2 654.982 286.472C654.678 286.728 654.526 287.08 654.526 287.528L654.55 288.176C654.55 288.576 654.47 288.896 654.31 289.136C654.166 289.36 653.958 289.472 653.686 289.472C653.446 289.472 653.246 289.392 653.086 289.232C652.942 289.072 652.87 288.864 652.87 288.608C652.87 288.224 653.054 287.808 653.422 287.36C653.806 286.896 654.294 286.512 654.886 286.208C655.606 285.808 656.35 285.608 657.118 285.608C657.566 285.608 657.942 285.696 658.246 285.872C658.566 286.048 658.798 286.296 658.942 286.616C659.022 286.824 659.07 287.08 659.086 287.384C659.118 287.688 659.134 288.272 659.134 289.136V293.72C659.134 294.296 659.19 294.696 659.302 294.92C659.414 295.128 659.614 295.232 659.902 295.232C660.334 295.232 660.654 295.08 660.862 294.776L660.958 294.824C660.766 295.224 660.51 295.536 660.19 295.76C659.87 295.968 659.526 296.072 659.158 296.072C658.742 296.072 658.398 295.952 658.126 295.712C657.854 295.456 657.702 295.12 657.67 294.704L657.598 294.68C657.23 295.144 656.806 295.512 656.326 295.784C655.846 296.04 655.358 296.168 654.862 296.168ZM655.894 295.256C656.23 295.256 656.542 295.184 656.83 295.04C657.134 294.88 657.382 294.656 657.574 294.368V290.984C656.742 291.192 656.094 291.4 655.63 291.608C655.182 291.816 654.862 292.064 654.67 292.352C654.478 292.64 654.382 293 654.382 293.432C654.382 293.992 654.518 294.44 654.79 294.776C655.062 295.096 655.43 295.256 655.894 295.256ZM667.741 295.784C667.229 296.088 666.669 296.24 666.061 296.24C665.309 296.24 664.629 296.016 664.021 295.568C663.413 295.12 662.933 294.512 662.581 293.744C662.245 292.96 662.077 292.08 662.077 291.104C662.077 290.032 662.285 289.08 662.701 288.248C663.133 287.4 663.733 286.744 664.501 286.28C665.285 285.816 666.173 285.584 667.165 285.584C667.789 285.584 668.413 285.68 669.037 285.872V280.328L667.621 279.8V279.632L670.405 278.696H670.597V294.512L671.917 294.8V294.92L669.301 296.12H669.157V294.488L669.085 294.464C668.717 295.04 668.269 295.48 667.741 295.784ZM664.597 294.08C665.157 294.88 665.925 295.28 666.901 295.28C667.365 295.28 667.781 295.184 668.149 294.992C668.533 294.784 668.829 294.504 669.037 294.152V288.008C669.037 287.304 668.869 286.768 668.533 286.4C668.213 286.016 667.749 285.824 667.141 285.824C666.133 285.824 665.317 286.28 664.693 287.192C664.085 288.088 663.781 289.28 663.781 290.768C663.781 292.16 664.053 293.264 664.597 294.08ZM678.15 285.584C679.078 285.584 679.902 285.808 680.622 286.256C681.342 286.704 681.902 287.336 682.302 288.152C682.702 288.952 682.902 289.872 682.902 290.912C682.902 291.952 682.702 292.88 682.302 293.696C681.902 294.496 681.342 295.12 680.622 295.568C679.902 296.016 679.078 296.24 678.15 296.24C677.222 296.24 676.398 296.016 675.678 295.568C674.958 295.12 674.398 294.496 673.998 293.696C673.598 292.88 673.398 291.952 673.398 290.912C673.398 289.872 673.598 288.952 673.998 288.152C674.398 287.336 674.958 286.704 675.678 286.256C676.398 285.808 677.222 285.584 678.15 285.584ZM675.174 290.912C675.174 292.512 675.438 293.76 675.965 294.656C676.494 295.552 677.222 296 678.15 296C679.078 296 679.806 295.552 680.334 294.656C680.862 293.76 681.126 292.512 681.126 290.912C681.126 289.312 680.862 288.064 680.334 287.168C679.806 286.272 679.078 285.824 678.15 285.824C677.222 285.824 676.494 286.272 675.965 287.168C675.438 288.064 675.174 289.312 675.174 290.912ZM699.188 295.808V296H694.676V295.808L696.14 295.616V289.496C696.14 288.872 696.124 288.408 696.092 288.104C696.06 287.8 696.004 287.544 695.924 287.336C695.684 286.76 695.204 286.472 694.484 286.472C693.716 286.472 693.068 286.824 692.54 287.528C692.572 288.072 692.588 288.728 692.588 289.496V295.616L694.076 295.808V296H689.54V295.808L691.028 295.616V289.496C691.028 288.872 691.012 288.408 690.98 288.104C690.948 287.8 690.892 287.544 690.812 287.336C690.572 286.76 690.092 286.472 689.372 286.472C688.62 286.472 687.988 286.8 687.476 287.456V295.616L688.94 295.808V296H684.476V295.808L685.916 295.616V287.216L684.5 286.688V286.52L687.212 285.584H687.404V287.192C688.348 286.12 689.332 285.584 690.356 285.584C691.284 285.584 691.94 285.976 692.324 286.76C692.388 286.888 692.444 287.048 692.492 287.24C693.468 286.136 694.46 285.584 695.468 285.584C696.396 285.584 697.052 285.976 697.436 286.76C697.548 286.968 697.62 287.264 697.652 287.648C697.684 288.016 697.7 288.632 697.7 289.496V295.616L699.188 295.808ZM701.38 281.312C701.172 281.52 701.068 281.792 701.068 282.128C701.068 282.464 701.172 282.744 701.38 282.968C701.604 283.176 701.884 283.28 702.22 283.28C702.556 283.28 702.828 283.176 703.036 282.968C703.26 282.744 703.372 282.464 703.372 282.128C703.372 281.792 703.26 281.52 703.036 281.312C702.828 281.088 702.556 280.976 702.22 280.976C701.884 280.976 701.604 281.088 701.38 281.312ZM703.132 285.584V295.616L704.596 295.808V296H700.108V295.808L701.572 295.616V287.216L700.156 286.688V286.52L702.94 285.584H703.132ZM709.312 287.6V295.616L710.776 295.808V296H706.288V295.808L707.752 295.616V288.488L705.256 289.928V289.496L707.752 288.056V280.328L706.336 279.8V279.632L709.12 278.696H709.312V287.144L711.88 285.656V286.112L709.312 287.6ZM717.407 285.584C718.335 285.584 719.159 285.808 719.879 286.256C720.599 286.704 721.159 287.336 721.559 288.152C721.959 288.952 722.159 289.872 722.159 290.912C722.159 291.952 721.959 292.88 721.559 293.696C721.159 294.496 720.599 295.12 719.879 295.568C719.159 296.016 718.335 296.24 717.407 296.24C716.479 296.24 715.655 296.016 714.935 295.568C714.215 295.12 713.655 294.496 713.255 293.696C712.855 292.88 712.655 291.952 712.655 290.912C712.655 289.872 712.855 288.952 713.255 288.152C713.655 287.336 714.215 286.704 714.935 286.256C715.655 285.808 716.479 285.584 717.407 285.584ZM714.431 290.912C714.431 292.512 714.695 293.76 715.223 294.656C715.751 295.552 716.479 296 717.407 296C718.335 296 719.063 295.552 719.591 294.656C720.119 293.76 720.383 292.512 720.383 290.912C720.383 289.312 720.119 288.064 719.591 287.168C719.063 286.272 718.335 285.824 717.407 285.824C716.479 285.824 715.751 286.272 715.223 287.168C714.695 288.064 714.431 289.312 714.431 290.912ZM717.311 283.448L718.871 281.48L719.207 281.048C719.415 280.808 719.551 280.632 719.615 280.52C719.695 280.392 719.735 280.272 719.735 280.16C719.735 279.952 719.671 279.776 719.543 279.632C719.431 279.488 719.271 279.416 719.063 279.416C718.679 279.416 718.431 279.584 718.319 279.92L717.239 283.424L717.311 283.448ZM737.738 285.824V286.016C737.034 286.128 736.538 286.296 736.25 286.52C735.962 286.728 735.73 287.112 735.554 287.672L732.818 296.072H732.554L730.058 288.752L727.658 296.072H727.394L724.154 286.832C724.09 286.624 724.018 286.472 723.938 286.376C723.858 286.28 723.73 286.208 723.554 286.16C723.394 286.112 723.114 286.064 722.714 286.016V285.824H727.01V286.016C726.53 286.048 726.21 286.104 726.05 286.184C725.906 286.248 725.834 286.352 725.834 286.496C725.834 286.608 725.882 286.8 725.978 287.072L728.066 293.456H728.162L729.866 288.224L729.434 286.952C729.322 286.648 729.178 286.432 729.002 286.304C728.842 286.16 728.546 286.064 728.114 286.016V285.824H732.17V286.016C731.69 286.048 731.37 286.104 731.21 286.184C731.066 286.248 730.994 286.352 730.994 286.496C730.994 286.608 731.042 286.8 731.138 287.072L733.25 293.456H733.346L735.194 287.648C735.29 287.328 735.338 287.08 735.338 286.904C735.338 286.648 735.234 286.464 735.026 286.352C734.818 286.224 734.434 286.112 733.874 286.016V285.824H737.738Z" fill="#C9C9C9" fill-opacity="0.5"/>
<circle cx="685" cy="340" r="25" fill="#C9C9C9" fill-opacity="0.1"/>
<circle cx="684.5" cy="339.5" r="2.5" fill="#C9C9C9" fill-opacity="0.3"/>
<circle cx="684.5" cy="339.5" r="9.5" fill="#C9C9C9" fill-opacity="0.2"/>
<path d="M624.928 489.616V473.824L622.96 473.632V473.44H628.864V473.632L626.776 473.824V489.712H632.08C632.464 489.712 632.744 489.656 632.92 489.544C633.096 489.416 633.256 489.176 633.4 488.824L635.032 484.72L635.32 484.768L634.72 490H622.96V489.808L624.928 489.616ZM645.088 487.264L645.184 487.312L645.088 487.576C644.768 488.424 644.288 489.08 643.648 489.544C643.024 490.008 642.272 490.24 641.392 490.24C640.528 490.24 639.76 490.016 639.088 489.568C638.416 489.12 637.888 488.496 637.504 487.696C637.136 486.896 636.952 485.976 636.952 484.936C636.952 483.896 637.152 482.968 637.552 482.152C637.952 481.336 638.52 480.704 639.256 480.256C639.992 479.808 640.832 479.584 641.776 479.584C642.896 479.584 643.752 479.92 644.344 480.592C644.952 481.248 645.264 482.208 645.28 483.472L645.136 483.592H638.656C638.624 484.008 638.608 484.336 638.608 484.576C638.608 486.032 638.904 487.144 639.496 487.912C640.088 488.664 640.912 489.04 641.968 489.04C642.512 489.04 643.032 488.92 643.528 488.68C644.04 488.424 644.488 488.048 644.872 487.552L645.088 487.264ZM641.512 479.848C640.76 479.848 640.136 480.16 639.64 480.784C639.144 481.408 638.824 482.256 638.68 483.328L643.336 483.16C643.384 482.968 643.408 482.648 643.408 482.2C643.408 481.336 643.24 480.728 642.904 480.376C642.584 480.024 642.12 479.848 641.512 479.848ZM654.253 479.416C653.933 479.416 653.701 479.744 653.557 480.4C653.973 480.72 654.293 481.112 654.517 481.576C654.741 482.024 654.853 482.528 654.853 483.088C654.853 483.952 654.589 484.696 654.061 485.32C653.549 485.928 652.861 486.32 651.997 486.496C651.805 486.544 651.613 486.568 651.421 486.568C650.589 486.712 649.941 486.912 649.477 487.168C649.029 487.424 648.805 487.712 648.805 488.032C648.805 488.256 648.877 488.448 649.021 488.608C649.165 488.752 649.437 488.896 649.837 489.04C650.237 489.168 650.837 489.304 651.637 489.448C652.997 489.704 653.965 490.064 654.541 490.528C655.117 490.992 655.405 491.648 655.405 492.496C655.405 493.136 655.197 493.712 654.781 494.224C654.365 494.752 653.789 495.16 653.053 495.448C652.317 495.752 651.493 495.904 650.581 495.904C649.253 495.904 648.221 495.664 647.485 495.184C646.765 494.72 646.405 494.064 646.405 493.216C646.405 492.624 646.637 492.072 647.101 491.56C647.581 491.064 648.221 490.688 649.021 490.432C648.461 490.208 648.053 489.96 647.797 489.688C647.557 489.4 647.437 489.064 647.437 488.68C647.437 488.232 647.701 487.824 648.229 487.456C648.773 487.088 649.549 486.792 650.557 486.568C649.565 486.472 648.757 486.104 648.133 485.464C647.525 484.824 647.221 484.024 647.221 483.064C647.221 482.04 647.573 481.208 648.277 480.568C648.997 479.912 649.917 479.584 651.037 479.584C651.933 479.584 652.709 479.8 653.365 480.232C653.765 478.856 654.381 478.168 655.213 478.168C655.517 478.168 655.757 478.256 655.933 478.432C656.109 478.592 656.197 478.808 656.197 479.08C656.197 479.304 656.117 479.496 655.957 479.656C655.797 479.816 655.605 479.896 655.381 479.896C655.189 479.896 654.989 479.808 654.781 479.632C654.749 479.616 654.677 479.576 654.565 479.512C654.469 479.448 654.365 479.416 654.253 479.416ZM651.037 486.352C651.645 486.352 652.133 486.048 652.501 485.44C652.885 484.832 653.077 484.048 653.077 483.088C653.077 482.128 652.885 481.344 652.501 480.736C652.133 480.128 651.645 479.824 651.037 479.824C650.429 479.824 649.933 480.128 649.549 480.736C649.181 481.344 648.997 482.128 648.997 483.088C648.997 484.048 649.181 484.832 649.549 485.44C649.933 486.048 650.429 486.352 651.037 486.352ZM654.013 493.216C654.013 492.608 653.797 492.136 653.365 491.8C652.933 491.48 652.117 491.2 650.917 490.96C650.245 490.848 649.693 490.704 649.261 490.528C648.125 490.928 647.557 491.752 647.557 493C647.557 493.848 647.829 494.504 648.373 494.968C648.933 495.432 649.717 495.664 650.725 495.664C651.733 495.664 652.533 495.44 653.125 494.992C653.717 494.56 654.013 493.968 654.013 493.216ZM666.524 489.808V490H662.06V489.808L663.524 489.616V483.496C663.524 482.872 663.508 482.408 663.476 482.104C663.444 481.8 663.38 481.544 663.284 481.336C663.156 481.064 662.94 480.856 662.636 480.712C662.348 480.552 662.012 480.472 661.628 480.472C660.812 480.472 660.084 480.816 659.444 481.504V489.616L660.908 489.808V490H656.42V489.808L657.884 489.616V481.336L656.468 480.808V480.64L659.18 479.704H659.372V481.216C660.396 480.128 661.468 479.584 662.588 479.584C663.084 479.584 663.532 479.696 663.932 479.92C664.348 480.128 664.644 480.408 664.82 480.76C664.932 480.968 665.004 481.256 665.036 481.624C665.068 481.976 665.084 482.6 665.084 483.496V489.616L666.524 489.808ZM668.778 475.312C668.57 475.52 668.466 475.792 668.466 476.128C668.466 476.464 668.57 476.744 668.778 476.968C669.002 477.176 669.282 477.28 669.618 477.28C669.954 477.28 670.226 477.176 670.434 476.968C670.658 476.744 670.77 476.464 670.77 476.128C670.77 475.792 670.658 475.52 670.434 475.312C670.226 475.088 669.954 474.976 669.618 474.976C669.282 474.976 669.002 475.088 668.778 475.312ZM670.53 479.584V489.616L671.994 489.808V490H667.506V489.808L668.97 489.616V481.216L667.554 480.688V480.52L670.338 479.584H670.53ZM675.655 480.28C676.375 479.816 677.191 479.584 678.103 479.584C678.999 479.584 679.751 479.784 680.359 480.184C680.983 480.584 681.295 481.08 681.295 481.672C681.295 481.944 681.215 482.168 681.055 482.344C680.895 482.504 680.679 482.584 680.407 482.584C680.087 482.584 679.863 482.488 679.735 482.296C679.623 482.088 679.519 481.768 679.423 481.336C679.311 480.84 679.167 480.464 678.991 480.208C678.815 479.952 678.487 479.824 678.007 479.824C677.431 479.824 676.911 480.032 676.447 480.448C675.983 480.864 675.615 481.44 675.343 482.176C675.087 482.912 674.959 483.744 674.959 484.672C674.959 486.064 675.255 487.144 675.847 487.912C676.439 488.68 677.279 489.064 678.367 489.064C678.959 489.064 679.487 488.944 679.951 488.704C680.431 488.448 680.871 488.064 681.271 487.552L681.487 487.264L681.583 487.312L681.487 487.576C681.167 488.424 680.679 489.08 680.023 489.544C679.383 490.008 678.623 490.24 677.743 490.24C676.895 490.24 676.135 490.024 675.463 489.592C674.807 489.144 674.287 488.528 673.903 487.744C673.535 486.944 673.351 486.04 673.351 485.032C673.351 483.992 673.551 483.056 673.951 482.224C674.367 481.392 674.935 480.744 675.655 480.28ZM685.261 490.168C684.653 490.168 684.149 489.96 683.749 489.544C683.365 489.112 683.173 488.56 683.173 487.888C683.173 487.088 683.533 486.448 684.253 485.968C684.989 485.488 686.229 485.072 687.973 484.72V482.536C687.973 481.608 687.869 480.968 687.661 480.616C687.453 480.248 687.093 480.064 686.581 480.064C686.085 480.064 685.685 480.2 685.381 480.472C685.077 480.728 684.925 481.08 684.925 481.528L684.949 482.176C684.949 482.576 684.869 482.896 684.709 483.136C684.565 483.36 684.357 483.472 684.085 483.472C683.845 483.472 683.645 483.392 683.485 483.232C683.341 483.072 683.269 482.864 683.269 482.608C683.269 482.224 683.453 481.808 683.821 481.36C684.205 480.896 684.693 480.512 685.285 480.208C686.005 479.808 686.749 479.608 687.517 479.608C687.965 479.608 688.341 479.696 688.645 479.872C688.965 480.048 689.197 480.296 689.341 480.616C689.421 480.824 689.469 481.08 689.485 481.384C689.517 481.688 689.533 482.272 689.533 483.136V487.72C689.533 488.296 689.589 488.696 689.701 488.92C689.813 489.128 690.013 489.232 690.301 489.232C690.733 489.232 691.053 489.08 691.261 488.776L691.357 488.824C691.165 489.224 690.909 489.536 690.589 489.76C690.269 489.968 689.925 490.072 689.557 490.072C689.141 490.072 688.797 489.952 688.525 489.712C688.253 489.456 688.101 489.12 688.069 488.704L687.997 488.68C687.629 489.144 687.205 489.512 686.725 489.784C686.245 490.04 685.757 490.168 685.261 490.168ZM686.293 489.256C686.629 489.256 686.941 489.184 687.229 489.04C687.533 488.88 687.781 488.656 687.973 488.368V484.984C687.141 485.192 686.493 485.4 686.029 485.608C685.581 485.816 685.261 486.064 685.069 486.352C684.877 486.64 684.781 487 684.781 487.432C684.781 487.992 684.917 488.44 685.189 488.776C685.461 489.096 685.829 489.256 686.293 489.256Z" fill="#C9C9C9" fill-opacity="0.5"/>
<circle cx="657" cy="533" r="25" fill="#C9C9C9" fill-opacity="0.1"/>
<circle cx="656.5" cy="532.5" r="2.5" fill="#C9C9C9" fill-opacity="0.3"/>
<circle cx="656.5" cy="532.5" r="9.5" fill="#C9C9C9" fill-opacity="0.2"/>
<defs>
<clipPath id="clip0_27_5010">
<rect width="1508" height="1330" fill="white"/>
</clipPath>
</defs>
</svg>
